<?xml version="1.0" encoding="utf-8"?>
<!-- Generator: Adobe Illustrator 22.0.1, SVG Export Plug-In . SVG Version: 6.00 Build 0)  -->
<svg version="1.1" id="Layer_1" xmlns="http://www.w3.org/2000/svg" xmlns:xlink="http://www.w3.org/1999/xlink" x="0px" y="0px"
	 viewBox="0 0 2560 1440" style="enable-background:new 0 0 2560 1440;" xml:space="preserve">
<style type="text/css">
	.st0{fill:url(#SVGID_1_);}
	.st1{fill:url(#SVGID_2_);}
	.st2{fill:url(#SVGID_3_);}
	.st3{fill:url(#SVGID_4_);}
	.st4{fill:#F2F2F2;}
</style>
<linearGradient id="SVGID_1_" gradientUnits="userSpaceOnUse" x1="514.7613" y1="85.0863" x2="514.7613" y2="715.1541">
	<stop  offset="0" style="stop-color:#FF0000"/>
	<stop  offset="1" style="stop-color:#A40000"/>
</linearGradient>
<path class="st0" d="M680.5,715.2c-11.3,0-22.5-4.8-30.3-14.1L241.5,215c-14-16.7-11.9-41.6,4.8-55.7l77.3-65
	c16.7-14,41.6-11.9,55.7,4.8L788,585.2c6.8,8,10,18.3,9.1,28.8c-0.9,10.5-5.8,20.1-13.9,26.8l-77.3,65
	C698.5,712.1,689.5,715.2,680.5,715.2z M349.1,94.1c-6.9,0-13.9,2.3-19.6,7.1l-77.3,65c-12.9,10.8-14.5,30.1-3.7,43l408.7,486.1
	c5.2,6.2,12.6,10,20.7,10.7c8.1,0.7,16-1.8,22.3-7l77.3-65c6.2-5.2,10-12.6,10.7-20.7c0.7-8.1-1.8-16-7-22.3L372.4,104.9
	C366.4,97.8,357.8,94.1,349.1,94.1z"/>
<linearGradient id="SVGID_2_" gradientUnits="userSpaceOnUse" x1="2059.7522" y1="1357.1516" x2="2059.7522" y2="936.0588">
	<stop  offset="0" style="stop-color:#006837"/>
	<stop  offset="1" style="stop-color:#00C43C"/>
</linearGradient>
<path class="st1" d="M1955.9,1357.2c-17.8,0-35.7-5.8-50.6-17.8c-34.9-27.9-40.5-79-12.6-113.9l207.6-259.1
	c27.9-34.9,79-40.5,113.9-12.6c34.9,27.9,40.5,79,12.6,113.9l-207.6,259.1C2003.2,1346.8,1979.6,1357.2,1955.9,1357.2z
	 M2103.8,969.2l3.5,2.8l-207.6,259.1c-24.8,31-19.8,76.4,11.2,101.2c13.3,10.6,29.2,15.8,45,15.8c21.1,0,42.1-9.2,56.3-27
	l207.6-259.1c24.8-31,19.8-76.4-11.2-101.2c-31-24.8-76.4-19.8-101.2,11.2L2103.8,969.2z"/>
<linearGradient id="SVGID_3_" gradientUnits="userSpaceOnUse" x1="1965.4166" y1="187.0993" x2="1965.4166" y2="496.1296">
	<stop  offset="0" style="stop-color:#FCEE21"/>
	<stop  offset="1" style="stop-color:#F7931E"/>
</linearGradient>
<path class="st2" d="M1965.4,496.1c-85.2,0-154.5-69.3-154.5-154.5s69.3-154.5,154.5-154.5c85.2,0,154.5,69.3,154.5,154.5
	S2050.6,496.1,1965.4,496.1z M1965.4,196.1c-80.2,0-145.5,65.3-145.5,145.5s65.3,145.5,145.5,145.5s145.5-65.3,145.5-145.5
	S2045.7,196.1,1965.4,196.1z"/>
<linearGradient id="SVGID_4_" gradientUnits="userSpaceOnUse" x1="552.6157" y1="1183.8915" x2="552.6157" y2="1021.8759">
	<stop  offset="0" style="stop-color:#3000FF"/>
	<stop  offset="1" style="stop-color:#29ABE2"/>
</linearGradient>
<path class="st3" d="M552.6,1183.9c-44.7,0-81-36.3-81-81s36.3-81,81-81c44.7,0,81,36.3,81,81S597.3,1183.9,552.6,1183.9z
	 M552.6,1030.9c-39.7,0-72,32.3-72,72s32.3,72,72,72s72-32.3,72-72S592.3,1030.9,552.6,1030.9z"/>
<rect x="-79.5" y="-14.3" width="2685.4" height="1486.2"/>
<path class="st4" d="M1004.5,1101.1"/>
<path class="st4" d="M1247.8,1343.6"/>
</svg>
