<?xml version="1.0" encoding="utf-8"?>
<!-- Generator: Adobe Illustrator 22.0.1, SVG Export Plug-In . SVG Version: 6.00 Build 0)  -->
<svg version="1.1" id="Layer_1" xmlns="http://www.w3.org/2000/svg" xmlns:xlink="http://www.w3.org/1999/xlink" x="0px" y="0px"
	 viewBox="0 0 768 256" style="enable-background:new 0 0 768 256;" xml:space="preserve">
<style type="text/css">
	.st0{fill:#EA4C89;}
	.st1{fill:#FFFFFF;}
</style>
<g>
	<path class="st0" d="M698,256H70c-38.5,0-70-31.5-70-70V70C0,31.5,31.5,0,70,0h628c38.5,0,70,31.5,70,70v116
		C768,224.5,736.5,256,698,256z"/>
	<g id="XMLID_806_">
		<path id="XMLID_810_" class="st1" d="M384,213.5c47.2,0,85.5-38.4,85.5-85.5c0-47.2-38.4-85.5-85.5-85.5s-85.5,38.4-85.5,85.5
			C298.5,175.2,336.8,213.5,384,213.5z M384,193.6c-13.5,0-26.4-4.1-37.4-11.8c4.5-7.4,18.1-26.1,47.4-37.3c7.4,20,11.1,37,12.6,45
			C399.4,192.3,391.8,193.6,384,193.6z M425.7,178.6c-1.7-8.1-5-22.3-10.8-39c2.9-0.3,5.9-0.4,9-0.4c10.6,0,19.5,1.8,24.2,2.9
			C444.9,156.3,437,169.3,425.7,178.6z M437.7,90.6c6.6,9.4,10.6,20.5,11.6,31.9c-6-1-16.4-2.3-28.1-2.3c-4.7,0-9.2,0.2-13.4,0.6
			c-0.1-0.3-0.2-0.5-0.3-0.8c-0.9-2.1-1.9-4.2-2.9-6.4C422,105.8,432.6,96.2,437.7,90.6z M384,62.6c14.7,0,28.9,5,40.4,14
			c-4,4.4-13,12.9-29,19.5c-7.9-14.2-16.1-26.2-20.8-32.8C377.8,62.8,380.9,62.6,384,62.6z M353.1,70.3c3.8,5.4,12.3,17.7,20.9,32.4
			c-23,5.5-43.2,6.8-52.9,7C326,93,337.6,78.6,353.1,70.3z M383.8,120.9c0.7,1.5,1.5,3,2.1,4.4c-29.1,10-47.1,32.3-54.1,42.4
			c-8.3-10.9-13-24-13.4-37.7C328.6,130,355.6,128.9,383.8,120.9z"/>
	</g>
</g>
</svg>
