<?xml version="1.0" encoding="utf-8"?>
<!-- Generator: Adobe Illustrator 22.0.1, SVG Export Plug-In . SVG Version: 6.00 Build 0)  -->
<svg version="1.1" id="Layer_1" xmlns="http://www.w3.org/2000/svg" xmlns:xlink="http://www.w3.org/1999/xlink" x="0px" y="0px"
	 viewBox="0 0 768 256" style="enable-background:new 0 0 768 256;" xml:space="preserve">
<style type="text/css">
	.st0{fill:#3B5998;}
	.st1{fill:#FFFFFF;}
</style>
<g>
	<path class="st0" d="M698,256H70c-38.5,0-70-31.5-70-70V70C0,31.5,31.5,0,70,0h628c38.5,0,70,31.5,70,70v116
		C768,224.5,736.5,256,698,256z"/>
	<g>
		<path class="st1" d="M432.1,31.9l-24.9,0c-28,0-46.1,18.6-46.1,47.3V101H336c-2.2,0-3.9,1.8-3.9,3.9v31.6c0,2.2,1.8,3.9,3.9,3.9
			H361v79.8c0,2.2,1.8,3.9,3.9,3.9h32.7c2.2,0,3.9-1.8,3.9-3.9v-79.8h29.3c2.2,0,3.9-1.8,3.9-3.9l0-31.6c0-1-0.4-2-1.1-2.8
			c-0.7-0.7-1.7-1.2-2.8-1.2h-29.3V82.5c0-8.9,2.1-13.4,13.7-13.4l16.8,0c2.2,0,3.9-1.8,3.9-3.9V35.8
			C436,33.7,434.2,31.9,432.1,31.9z"/>
	</g>
</g>
</svg>
