<?xml version="1.0" encoding="utf-8"?>
<!-- Generator: Adobe Illustrator 22.0.1, SVG Export Plug-In . SVG Version: 6.00 Build 0)  -->
<svg version="1.1" id="Layer_1" xmlns="http://www.w3.org/2000/svg" xmlns:xlink="http://www.w3.org/1999/xlink" x="0px" y="0px"
	 viewBox="0 0 768 256" style="enable-background:new 0 0 768 256;" xml:space="preserve">
<style type="text/css">
	.st0{fill:#333333;}
	.st1{fill:#FFFFFF;}
</style>
<g>
	<path class="st0" d="M698,256H70c-38.5,0-70-31.5-70-70V70C0,31.5,31.5,0,70,0h628c38.5,0,70,31.5,70,70v116
		C768,224.5,736.5,256,698,256z"/>
	<g>
		<path class="st1" d="M384,34.1c-51.9,0-93.9,42.1-93.9,93.9c0,51.9,42.1,93.9,93.9,93.9s93.9-42.1,93.9-93.9
			C477.9,76.1,435.9,34.1,384,34.1z M410.3,199.6c-0.5-7.4-1.1-16.5-1.2-20.1c-0.2-2.8-0.5-10-7.4-14.6c27.1-2.3,40-17.3,41-37.1
			c0.8-11.3-3.7-21.2-11.7-29.2c0.4-8.6-0.3-18.7-0.8-23.2c-6.1-1.8-20.4,5.8-24.4,9c-8.4-3.3-29-4.4-41.5,0
			c-8.9-6.2-19-10.1-24.5-9c-5.1,11.3-1.8,21.9-0.8,23.2c-6.5,6-15.7,13.3-13.2,28.7c4,22.6,19.9,34.8,45.5,37.8
			c-5.5,1.1-6.4,5.2-6.8,7c-17.2,7.1-22.1-4.4-24.3-7.4c-7.2-8.9-13.7-6.3-14.1-6.2c-0.4,0.1-0.7,0.7-0.6,1c0.4,1.9,4.3,3.9,4.5,4
			c5.3,4,7.3,11.1,8.5,13.2c7.6,12.6,25.4,7.4,25.6,7.5c0,1.1-0.1,10.3-0.2,17.5c-32.4-8.8-56.2-38.4-56.2-73.5
			c0-42.2,34.2-76.3,76.3-76.3s76.3,34.2,76.3,76.3C460.3,160.9,439.5,188.8,410.3,199.6z"/>
	</g>
</g>
</svg>
