<?xml version="1.0" encoding="utf-8"?>
<!-- Generator: Adobe Illustrator 22.0.1, SVG Export Plug-In . SVG Version: 6.00 Build 0)  -->
<svg version="1.1" xmlns="http://www.w3.org/2000/svg" xmlns:xlink="http://www.w3.org/1999/xlink" x="0px" y="0px"
	 viewBox="0 0 2000 1468" style="enable-background:new 0 0 2000 1468;" xml:space="preserve">
<style type="text/css">
	.st0{display:none;}
	.st1{fill:#170089;}
	.st2{fill:#3E00F8;}
	.st3{fill:#2C00AE;}
	.st4{fill:#010101;}
	.st5{fill:#4000FF;}
	.st6{filter:url(#Adobe_OpacityMaskFilter);}
	.st7{opacity:0.75;mask:url(#SVGID_1_);}
	.st8{fill:#2100C5;}
</style>
<g id="Layer_1">
	<rect x="-209" y="-379" class="st0" width="2526" height="2358"/>
	<g>
		<g>
			<g>
				<g>
					<g>
						<path class="st1" d="M1957.7,801.4c0.1,59.7,0.8,119.4,0,179c-0.4,31.3-11.4,60.2-27,87.1c-34.4,59.3-83.4,105.1-136.2,147.6
							c-45.5,36.7-96.9,62.5-149.9,85.8c-73,32-149.1,54.1-227.4,68.4c-73.3,13.4-147.1,18.6-221.6,15.2
							c-60.5-2.8-120-11.6-178.5-26.8c-61.7-16.1-120.8-39.3-176-71.1C577.2,1134.8,313.7,982.4,50,830.3c-6.1-3.5-8.2-7.3-8.2-14.3
							c0.3-56.9,0.2-113.9,0.2-170.8c0-2.2,0.4-4.5,0.6-6.7c1.4,0.8,2.8,1.5,4.2,2.3C183,719.4,319.2,798,455.4,876.7
							c76,43.9,152,87.9,228,131.8c42.3,24.5,84.6,49,126.8,73.5c31.3,18.1,63.1,35.4,96.3,49.9c49.6,21.6,101.1,37.8,154,48.7
							c53.7,11,108,16.8,162.8,17.5c70.6,0.9,140.5-5.3,209.8-19.3c43.9-8.9,87.3-19.8,130-33.5c4.7-1.5,9.2-3.7,13.9-5.3
							c10.1-3.4,20.7-5.6,30.3-10c10-4.5,20.5-8.1,30.3-13.2c12.6-6.4,26-11,38.7-17.2c17.8-8.7,34.9-18.9,52.8-27.3
							c12-5.6,23-12.8,33.8-20.2c17.4-11.9,33.4-25.7,49.6-39.1c5.4-4.5,11.7-7.7,16.4-13c2,0.3,3.1-0.5,3.1-2.6
							c1.4-1.3,2.7-2.7,4.1-4c4.1,1.7,2.2,3.9,0.6,6.3c-2.2,3.3-3.1,7.5,0.8,9.4c3.4,1.7,5.4-2.4,6.9-5c4.2-7.4,5.6-16.1,10.3-23.3
							c1.2-1.8-0.1-3.4-0.7-5.1c5.7-5.6,11.4-11.3,17.1-16.9c1,0,1.5-0.5,1.6-1.5c13.2-12.8,24.3-27.3,35.1-42.1
							C1933,881,1952.4,844.2,1957.7,801.4z"/>
						<path class="st2" d="M1871.2,958.8c-5.7,5.6-11.4,11.3-17.1,16.9c-6.4,5.5-12.4,11.3-17.9,17.7c-1.4,1.3-2.7,2.7-4.1,4
							c-1.4,0.4-2.5,1.2-3.1,2.6c-4.7,5.3-11.1,8.5-16.4,13c-16.2,13.5-32.2,27.2-49.6,39.1c-10.8,7.4-21.8,14.6-33.8,20.2
							c-17.9,8.4-35,18.5-52.8,27.3c-12.7,6.2-26.2,10.8-38.7,17.2c-9.9,5.1-20.3,8.7-30.3,13.2c-9.6,4.3-20.2,6.6-30.3,10
							c-4.7,1.6-9.2,3.8-13.9,5.3c-42.7,13.8-86,24.6-130,33.5c-69.3,14-139.2,20.2-209.8,19.3c-54.8-0.7-109.1-6.4-162.8-17.5
							c-53-10.9-104.4-27-154-48.7c-33.2-14.5-65-31.7-96.3-49.9c-42.3-24.5-84.5-49-126.8-73.5c-76-44-152-87.9-228-131.8
							C319.2,798,183,719.4,46.7,640.7c-1.4-0.8-2.8-1.5-4.2-2.3c10.6-8.3,22.7-14,34.2-20.7c33.7-19.6,67.5-39,101.3-58.5
							c7-4,6.8-4.6-0.5-8.6c-4.7-2.6-12-4.8-12.2-9.6c-0.2-4.6,7.5-6.1,11.9-8.6c24.7-14.4,49.4-28.8,74.2-43.1
							c7.8-4.5,15.8-8.5,23.6-12.8c1.1,3.1,6.8-0.4,6.5,4.2c-0.2,4.5-3.8,5.7-7.6,6.3c-0.9,0.1-1.8,0.6-2.4,1.2
							c-10.5,10-23.3,17-34.4,26.3c-6.4,5.4-12.7,9.9-16.9,17.4c-1.8,3.1-4,5.8-4.3,9.6c-0.1,1.3-0.9,2.6,0.3,3.8
							c1.6,1.5,3,0.4,4.3-0.3c5.8-3.2,11.5-6.4,17.2-9.7c22.2-12.7,44.3-25.5,66.5-38.3c21.2-12.2,42.4-24.4,63.5-36.6
							c1.4-0.8,3-1.5,2.5-3.5c-0.9-3.7-11.9-8.6-15.6-7.3c-5.5,1.9-10.8,4.2-17,4.1c-5.1-0.1-10.4,0.5-15.2,2.8
							c-5.4,2.6-6.4,0.5-5-4.5c16.6-9.9,33.1-19.8,49.8-29.5c25.3-14.7,50.9-29.1,76.2-44c4.8-2.8,8.4-3.5,13.6-0.5
							c70.6,40.8,141.8,80.4,212,121.9c30.2,17.8,60.4,35.7,90.8,53.2c41.6,23.9,83.6,47.3,125.2,71.3
							c27.3,15.8,54.8,31.5,81.9,47.7c25.7,15.4,52.2,29.5,78.1,44.5c28.8,16.6,57.6,33.1,86.4,49.7c20,11.6,41.4,19.8,63.7,25.7
							c2.1,0.6,4.5,0.3,6.8,0.4c6.5,4.4,14.2,4,21.5,5c24.5,3.3,49,3.5,73.4-0.8c35.5-5.1,68.7-16.7,99.3-35.6
							c13.3-8.3,26.5-16.8,38.3-27.3c15.2-13.6,28.3-28.4,30.6-49.9c0.5-4.6,3-5.1,6.9-5.1c57.4,0.2,114.8-0.6,172.1,0.6
							c78.1,1.5,156.1,0.4,234.2,1.1c9.7,0.1,9.9,0.3,8.6,10.1c-2.3,16.5-6.7,32.4-13.4,47.7c-9.2,19.7-20.6,38.1-33.5,55.5
							c-1.5,0.8-2.4,2-2.8,3.6c-12.8,15.7-25.9,31.1-40.7,45c-11.4,10.7-22.6,21.5-34.8,31.3c-12.2,9.8-24.6,19.4-36.9,29.2
							c-14.7,11.7-30.6,21.6-47,30.6c-23.5,12.9-47,25.7-72.2,35.1c-0.6-4.9,2.4-7.5,6.2-9.5c3-1.6,6.4-2.8,9-4.9
							c9.9-8,21.3-13,33.4-16.1c8.3-2.1,13.8-7.1,18.7-13.5c2-2.7,3.2-6.8,6.4-7.8c11.3-3.7,20.6-11.5,31.5-16
							c8.7-3.6,16.3-8.2,22.6-15.7c3.7-4.4,6.9-10,12.2-12.5c12.3-5.9,18.8-16.5,25.3-27.5c6.3-10.6,12-21.8,22.5-29.5
							c3.2-2.3,8.5-3.9,8.9-8.8c0.6-7.3,5.7-12.3,9.1-17.9c5.6-9.2,6.1-29.3-1.1-36.9c-4.9-5.1-11.5-9.5-17.7-10.8
							c-16-3.3-32.1-7.9-48.7-7.5c-7.9,0.2-15.8-1.1-23.4-2.1c-16.2-2-32.4-0.5-48.6-2c-0.9-0.1-1.8,0.2-2.7,0.4
							c-11.5,1.9-23,0.3-34.5,1.2c-17.1,1.4-35-4.6-50.9,6.5c-3.6,2.5-7.3,4.5-8.7,9.5c-1.2,4.3-4.2,8.8-8.4,10.3
							c-8.8,3.1-14.3,10.5-20,16.3c-7.7,8.1-17.1,11.4-26.3,15.9c-8,3.8-17.8,1.7-25,7.9c-5.2,4.4-11.8,5.6-18,7
							c-7.2,1.6-14.8,1.7-22.1,2.9c-10.3,1.7-19.4,4.5-24,15.9c-5,12.5-14.9,21-27.3,26.4c-9.8,4.3-19.8,7.8-30.4,9.3
							c-4,0.6-8.4,0.6-11.9,2.3c-12.1,5.7-25.3,6.1-38.1,8.8c-13.8,3-27.9,3.8-41.6,7.8c-12.4,3.6-25.1,7.9-38.5,4.7
							c-6.5-1.6-11.9-5.4-17.5-8.7c-6-3.5-11.8-5.7-19.2-4c-8.3,2-16.6,4.5-25.4,4.4c-12.5-0.1-24.6-2.9-36.8-5
							c-17.3-2.9-32.3-11.4-48.4-17.1c-14-4.9-28.1-9.6-41.9-15.4c-4.7-2-10.3-0.9-14.3-5.4c-6.5-7.2-13.6-13.8-22.5-18.3
							c-9.1-4.6-17.9-9.7-25.3-16.9c-6.6-6.3-11.8-13.7-20.7-18c-14.4-6.9-28.8-13.9-40.7-25.4c-10.3-10.1-23.8-15.9-37.7-19
							c-11.2-2.6-19.6-8.9-27.8-15.9c-3.3-2.8-6.2-5.8-10.3-7.6c-16.3-7.2-32.9-13.8-48.4-22.6c-3.5-2-6.8-5.1-10.6-5.8
							c-10.5-1.9-14.8-9.4-19.1-17.8c-2-4-1-9.1-5.2-12.1c-11.2-8.1-22.3-16.3-31.3-27c-7.5-8.9-17.6-15.3-23.5-25.9
							c-2.2-3.9-5.9-7.6-10.9-9c-9.3-2.6-17.9-6.5-25.4-12.6c-1.2-1-2.5-2.1-4-2.5c-17-4.8-29.5-15.7-39.8-29.5
							c-2.3-3.1-5.1-4.7-8.4-6.4c-12.7-6.5-29.3-4.4-38.7-18.1c-1-1.5-3.5-2.1-5.4-2.8c-10.8-3.5-21.5-7.1-31.7-12.3
							c-9.5-4.9-20-6.6-30.7-6.2c-1.3,0-2.9,0-4-0.6c-9.5-5.1-19.7-9.1-27.4-17.3c-1.4-1.5-2.8-2.7-5.3-1.8
							c-2.3,0.8-4.7-0.8-6.1-2.4c-5-5.5-10.4-10.2-18-11.3c-12.1-1.7-23.2-9.9-36.3-5.1c-1.2,0.4-2.7,0.1-4.1,0
							c-12.1-0.4-23.8,0.3-32.7,10.3c-1.4,1.5-3.3,2.1-5.6,1.7c-9.9-1.8-18.2,3.5-25.8,8c-12.2,7.2-23.3,16.7-37,20.9
							c-11.7,3.6-20.2,11.8-29.7,18.3c-9,6.2-15.6,15.9-25.2,22c-6.8,4.3-9.7,20.3-6.4,27.6c5.1,11.3,16.6,13.4,25.9,18.2
							c5,2.5,9.3,5,12.6,9.5c4.3,5.9,9.1,11.2,15.9,14.5c4.9,2.4,9.6,5.1,14.2,8c14.2,8.6,26,21,42.4,26c1,0.3,2,1.3,2.5,2.2
							c3,5.2,7.9,7.2,13.2,9c2.3,0.8,4.5,1.7,6.6,3.3c12.2,9,23.8,18.8,37.5,25.7c8.5,4.3,18.1,6.9,24.8,13.9
							c5.2,5.4,11.4,8.1,18.3,9.8c2,0.5,3.6,1.6,5.4,2.4c11.2,5.2,19.7,14.6,31,19.6c2.9,1.3,5.6,2.9,8.3,4.4
							c10,5.7,18,14.1,28.6,18.9c22.3,10.1,41.5,25.4,62.6,37.5c2.2,1.3,1.3,3.1,0.4,4.7c-1.6-0.8-3.3-1.4-4.9-2.3
							c-77.2-44.5-154.3-89.1-231.5-133.6c-43.3-25-86.7-49.9-130-74.8c-0.3-1-1-1.3-2-1.1c-8.6-5.1-17.1-10.1-25.8-15.1
							c-1.4-0.8-2.6-2.2-4.8-0.6c-14.5,10.1-30.3,17.9-45.4,27c-3.9,3.9-0.9,8.7-1.8,13c-5,2.5-4.8,5.2-0.1,7.8
							c0.1,0.7,0.3,1.5,0.4,2.2c-3.8,2.4-3.1,5.6-1.6,9c3,6.6,7.9,11.9,13.7,15.7c15.2,9.9,31.3,18.7,46.3,28.9
							c7.7,5.2,16.3,8.9,23.7,14.4c8.2,6.1,17.8,9.5,26.3,15c9.8,6.3,20.9,10.5,30.4,17.2c8.5,6,17.9,10.5,26.7,15.9
							c12.3,7.6,24.8,14.9,37.6,21.6c6.8,3.6,12.4,9.4,19.4,11.9c12.4,4.4,23.1,11.7,34,18.5c7.3,4.5,14.3,10.7,22.2,12.8
							c13,3.3,22.5,12.3,33.8,18.1c7.4,3.8,14.9,8.2,22,13c12.2,8.1,25.7,14.2,38,22.3c12.3,8.1,25.4,15.5,38.5,21.9
							c16.7,8.3,31.3,20.9,49.9,25.4c5.1,1.2,8.2,6.1,13,8.5c7.7,3.8,15.2,8,22.7,12.1c12.4,6.8,24.3,14.7,36.6,21.8
							c20.7,11.9,41.7,23.2,62.2,35.4c13.8,8.2,27.9,16,41.6,24.3c18.8,11.4,38.9,20.7,57.6,32.3c19.3,12,40,20.9,60.2,30.8
							c10.9,5.4,23,8.3,34,13.2c22.1,9.8,44.8,17.2,67.9,23.6c14.3,4,28.5,8.2,43.1,11.1c21.4,4.3,42.9,7.7,64.4,11
							c21,3.2,42.1,4.8,63.3,5.7c9.6,0.4,19.1,1,28.7,1.2c13.4,0.2,26.7,0.1,40.1,0.2c13.6,0.2,27.2-2.6,40.7-2.1
							c14.5,0.6,28.4-2.4,42.6-3.4c13.5-0.9,26.8-3.2,40.2-5.5c13.1-2.2,26.5-2.6,39.7-4.9c8.9-1.6,17.2-4.9,26.1-6.4
							c11.1-1.9,22.2-3.4,32.9-7.1c7.9-2.7,15.8-5,24-6.8c5.7-1.2,11.5-2.8,16.8-5c15.2-6.2,31.2-10.2,46.6-15.8
							c11-4,22-8.2,32.8-12.7c14.7-6.1,29-13.3,43.8-19.2c16.2-6.5,30.8-16.1,46.3-23.9c7.6-3.8,15.1-9.1,22.5-13.8
							c20.7-13.1,39.6-28.5,58.9-43.3c5.4-4.1,9.2-10.1,14.5-14c8.7-6.3,16.3-13.7,24.2-20.8c10-8.9,18.1-19.5,27-29.5
							c21.5-24.2,39.4-50.6,50.8-81c2.9-7.6,8.5-14.9,5.4-24c4.2-2.6,8.9-1.6,13.1-1.1c14.4,1.6,28.9,0.9,43.3,0.9
							c6.2,0,7.6,2.3,6.1,7.7c-5.3,42.9-24.7,79.6-49.7,113.8c-10.8,14.8-22,29.3-35.1,42.1C1872.3,957.8,1871.8,958.3,1871.2,958.8
							z M187.6,555c-0.3,0.7-0.6,1.4-0.9,2c8.3,3.9,14.9,10.9,24.1,13.3c0.3-0.5,0.6-1.1,0.9-1.6C203.6,564.1,195.6,559.5,187.6,555
							z"/>
						<path class="st3" d="M1126.6,278.5c-0.5-17.6-2.3-35.1-0.9-52.9c1.9-24.9,0.5-50.1,0.5-75.1c0-2.2,0-4.4,0-6.6
							c3.1-0.3,4.8,1.5,6.7,2.5c35.5,20.4,71.2,40.6,106.3,61.7c6.7,4,10.6,3.4,16.6-0.2c36.7-21.6,73.6-42.7,110.5-64
							c6.9-4,6.9-3.9,6.9,4.1c0,135.7,0,271.4,0.2,407.2c0,5-1.5,7.6-5.8,10.1c-23.7,13.5-47.2,27.4-70.8,41.2c-3,1.6-6.1,3-9,4.7
							c-13.3,7.7-26.3,15.9-40.2,22.6c0-109.1,0-218.2-0.1-327.4c0-7-0.4-14.2-1.6-21c-1.1-6.2-1.8-13-5.1-19.1
							c-1.4,1.6-0.9,2.7-0.8,3.8c2.3,15.1-1.5,24.7-13.8,30.9c-6.5,3.3-9.7,7.4-10,14.3c-6.6,16.1-17.2,19.2-29.7,17.4
							c-4.8-0.7-9.4-3-14.1-4.5c-17.9-12-31.3-27.6-40-47.4C1131.2,278.2,1128.9,278.5,1126.6,278.5z M1151.4,212
							c1.4,0.2,2.8,0.3,4.2,0.5c5.7,1.7,11.1,3.7,16.3,6.8c9.7,5.8,16.9,14.3,24.3,22.5c8.1,11.8,15.3,24.1,18.6,38.3
							c0.7,2.9,2.3,2.1,4.1,1.3c6.1-2.7,8.7-7.7,8.9-14.1c0.6-21.3-6.9-39.5-22.5-53.9c-21.9-20.2-39.8-17-62.4-0.4
							c2.4-0.5,4.1-0.8,5.9-1.2C1149.7,211.8,1150.5,211.9,1151.4,212z"/>
						<path class="st1" d="M163.1,620.2c-0.1-0.7-0.3-1.5-0.4-2.2c0.7-2.6,0.7-5.2,0.1-7.8c0.9-4.3-2.1-9.1,1.8-13
							c3.8,5.4,10.5,6.5,15.2,10.5c4,3.4,8.3,2.7,11.9,0.5c9.6-5.8,19.2-11.4,28.9-17c6.4-3.8,12.2-7.5,19.9-5.2
							c1-0.2,1.7,0.1,2,1.1c0.5,3.7-0.8,6.2-4.7,6.8c-2.6,0.4-4.3,2.3-6.4,3.7c-7.7,5-15.1,10.5-23.9,13.8c-5.8,2.1-6.2,5.9-1.6,10
							c1.4,1.2,2.5,2.8,4.1,3.5c19.4,9.4,37.2,21.5,55.8,32.3c51.3,29.5,102.6,59.1,153.9,88.6c27.6,15.9,55.1,31.8,82.6,47.7
							c30.6,17.7,61.2,35.5,91.9,53.2c32,18.5,64.2,36.9,96.2,55.4c30.9,17.9,61.6,36,92.5,53.8c31.4,18.1,63.1,36,94.6,54
							c35,20,71.4,37.1,109.4,50.5c34.3,12.1,69.3,21.1,105,28c28.8,5.5,57.7,9.2,86.8,11.4c22.3,1.7,44.8,2.3,67.2,1.9
							c29.9-0.6,59.8-0.6,89.6-4.3c18.4-2.3,36.7-4.5,54.9-7.7c36.4-6.4,72.2-15.3,107.7-25.3c30.4-8.6,60.3-18.9,89.2-31.5
							c22.1-9.6,45.2-17,64.9-32.1c10.3-7.8,23.7-11.7,34.1-19.8c20-15.5,41.5-29,59.6-47.2c7.4-7.4,14.8-15.1,23.4-21.5
							c5.6-4.2,9.8-10.4,14.3-16.1c5.2-6.7,8.6-14.9,17.2-18.6c2.6-1.1,3.3-4.3,4.5-6.7c1.1-2.2,1.7-4.5,3.5-6.5
							c8.1-9.2,13.7-20.1,19.2-31c4.4-8.7,7.5-18.1,12.4-26.6c2.2-3.9,2.7-8.1-3.4-9.4c0.4-1.6,1.4-2.8,2.8-3.6
							c5.2-0.4,10.3-1.1,15.5-1.1c19.9-0.2,19.6-0.3,25.3-19.4c1.6-5.5,1.5-11.9,6.1-16.4c1,11.9,0.5,23.7,0.3,35.6
							c-3.8-0.3-6.2,0.5-7.2,5.1c-2.3,10.5-7.1,20.2-11.8,29.7c-13.2,26.7-31.1,50.2-50.8,72.2c-31.5,35.1-67.8,65-106.5,91.7
							c-41.1,28.3-86.5,48.7-132.5,67.4c-39.3,15.9-79.8,28.6-121.1,38.4c-32.4,7.7-65,14-98.1,18.5c-26.5,3.6-53.2,6.2-79.8,7.3
							c-27.4,1.2-55,1-82.6-0.6c-30.1-1.8-60-4.8-89.8-9.7c-45.4-7.5-89.5-19.4-132.6-35.3c-51.1-18.8-98-45.7-144.8-73
							c-33.6-19.6-67.3-38.9-100.9-58.3c-36.4-21-72.8-42-109.2-63.1c-33.8-19.6-67.7-39.1-101.5-58.7
							c-34.1-19.7-68.1-39.3-102.2-58.9c-33.9-19.5-67.7-39.1-101.5-58.7c-34.1-19.7-68.1-39.4-102.2-58.9
							C195.5,638.5,179.8,628.4,163.1,620.2z"/>
						<path class="st3" d="M163.1,620.2c16.7,8.2,32.4,18.3,48.6,27.5c34.2,19.5,68.2,39.2,102.2,58.9
							c33.9,19.5,67.7,39.1,101.5,58.7c34.1,19.7,68.1,39.3,102.2,58.9c33.9,19.5,67.7,39.1,101.5,58.7
							c36.4,21,72.8,42.1,109.2,63.1c33.7,19.4,67.4,38.8,100.9,58.3c46.8,27.3,93.7,54.1,144.8,73c43.1,15.9,87.2,27.8,132.6,35.3
							c29.8,4.9,59.7,7.9,89.8,9.7c27.5,1.6,55.1,1.8,82.6,0.6c26.6-1.2,53.3-3.7,79.8-7.3c33.1-4.5,65.8-10.8,98.1-18.5
							c41.2-9.8,81.8-22.5,121.1-38.4c46-18.7,91.4-39.1,132.5-67.4c38.7-26.7,75-56.6,106.5-91.7c19.7-22,37.6-45.6,50.8-72.2
							c4.7-9.6,9.5-19.2,11.8-29.7c1-4.6,3.4-5.4,7.2-5.1c2.4,2.2,5.4,1.2,8.2,1.4c3.1,9.1-2.6,16.4-5.4,24
							c-11.4,30.4-29.3,56.8-50.8,81c-8.9,10-17,20.6-27,29.5c-8,7.1-15.5,14.5-24.2,20.8c-5.3,3.9-9.1,9.9-14.5,14
							c-19.3,14.8-38.2,30.2-58.9,43.3c-7.4,4.7-14.9,9.9-22.5,13.8c-15.5,7.8-30,17.5-46.3,23.9c-14.8,5.9-29.1,13.1-43.8,19.2
							c-10.8,4.5-21.7,8.7-32.8,12.7c-15.4,5.6-31.4,9.6-46.6,15.8c-5.3,2.2-11.1,3.7-16.8,5c-8.2,1.8-16.1,4.1-24,6.8
							c-10.7,3.7-21.8,5.3-32.9,7.1c-8.8,1.5-17.2,4.8-26.1,6.4c-13.2,2.3-26.6,2.7-39.7,4.9c-13.4,2.3-26.7,4.6-40.2,5.5
							c-14.2,0.9-28.1,3.9-42.6,3.4c-13.4-0.5-27,2.2-40.7,2.1c-13.4-0.2-26.7,0-40.1-0.2c-9.6-0.2-19.1-0.8-28.7-1.2
							c-21.2-0.9-42.3-2.5-63.3-5.7c-21.5-3.3-43.1-6.7-64.4-11c-14.5-2.9-28.8-7.1-43.1-11.1c-23.1-6.4-45.9-13.8-67.9-23.6
							c-11-4.9-23.1-7.8-34-13.2c-20.2-10-40.9-18.9-60.2-30.8c-18.7-11.6-38.8-20.8-57.6-32.3c-13.7-8.3-27.8-16.1-41.6-24.3
							c-20.5-12.2-41.5-23.5-62.2-35.4c-12.3-7.1-24.1-15-36.6-21.8c-7.5-4.1-15-8.3-22.7-12.1c-4.8-2.3-7.9-7.2-13-8.5
							c-18.6-4.5-33.2-17.1-49.9-25.4c-13.1-6.5-26.2-13.8-38.5-21.9c-12.3-8.1-25.8-14.2-38-22.3c-7.1-4.8-14.6-9.2-22-13
							c-11.3-5.8-20.8-14.8-33.8-18.1c-8-2.1-15-8.3-22.2-12.8c-11-6.8-21.6-14.1-34-18.5c-7.1-2.5-12.6-8.3-19.4-11.9
							c-12.8-6.7-25.3-14-37.6-21.6c-8.8-5.5-18.1-9.9-26.7-15.9c-9.4-6.7-20.6-11-30.4-17.2c-8.5-5.5-18.1-8.9-26.3-15
							c-7.4-5.5-16-9.2-23.7-14.4c-15-10.2-31.1-19-46.3-28.9c-5.8-3.8-10.7-9.1-13.7-15.7C160,625.8,159.3,622.6,163.1,620.2z"/>
						<path class="st1" d="M1296.7,796.6c-24.4,4.4-48.9,4.1-73.4,0.8c-7.3-1-15-0.6-21.5-5c0-36.7,0-73.4,0.1-110.1
							c0-2.5,0.2-5,0.4-7.4c3.4,0.9,5.8,3.4,8.5,5.3c6,4.3,11.7,9.3,19.7,10.1c4,0.4,8,1.7,11.8,2.9c11.6,3.8,12,3.8,11.5-8.4
							c-0.3-7,2.4-10.6,8.6-13.5c9-4.2,17.9-8.9,25.1-15.9c2.5-2.5,4.3-6,8.8-5c0.1,9.7,0.3,19.5,0.3,29.2
							C1296.6,718.5,1296.7,757.6,1296.7,796.6z"/>
						<path class="st3" d="M1126.1,523.3c-2.5-15.9-3.1-31.8,0.1-47.6c7.9-5.1,15.8-10.2,23.8-15.1c3.8-2.4,7.5-4.4,11.8,0.5
							c2.3,2.6,6.3,4.3,10.3,4.7c2.5,0.5,4.6,1.8,6.6,3.2c0.3,1.6,1.3,2.3,2.9,2.3c0.4,0,0.9,0.2,1.3,0.3c7,7,15.5,11.4,25.2,13.3
							c13.3,2.6,23.4,8.9,27,22.9c1,3.9,2.8,7.7,3.4,11.7c2,12.9-0.1,28-15.5,33.8c-4.2,1.6-6.5,4.8-5.6,9.6
							c-0.6,1.7-1.1,3.4-1.7,5.1c-4.8,13.7-16.8,20.4-31,17.2c-3.3-0.7-6.5-1.4-9.8-2.1l0.1,0.1c-0.3-1-1-1.5-2.1-1.4
							c-0.5-0.8-0.7-1.8-1.4-2.3c-20.7-12.7-33.6-31.6-42.4-53.7C1128.3,524.7,1127.6,523.5,1126.1,523.3z"/>
						<path class="st3" d="M1126.2,402.5c-1.7-16.7-3.7-33.5,0-50.2c0.9,0.1,1.4,2.2,1.8,1.3c4.1-8.9,13-11.3,20.4-16
							c3.9-2.4,7-1.9,10.8-0.3c7.1,3,13.8,6.4,20.5,10.1c13.3,7.5,27.7,13.2,40.3,21.7c7.1,4.8,14.6,10.7,17.1,20.8
							c1.5,6.4,1.6,12.5,1.8,18.8c0.2,8.7-2.9,15.9-11.7,18.8c-8,2.7-11.6,7.9-11.6,16.1c-6.7,16.1-17.5,21.8-33.7,17.1
							c-5.3-1.6-10.3-4.5-15.4-6.8c-16.2-13.6-29.3-29.6-37.1-49.5C1128.8,403.1,1127.5,402.9,1126.2,402.5z"/>
						<path class="st4" d="M1174.7,583.2c3.3,0.7,6.5,1.4,9.8,2.1c14.2,3.1,26.2-3.6,31-17.2c0.6-1.7,1.1-3.4,1.7-5.1
							c11.3-4.7,22.1-9.9,24.7-24c2.1,12.1,0.7,23.8-1.4,35.1c-2.6,13.9-5.4,27.8-11.8,40.8c-1.6,3.3-2.5,8.2,1.6,10.4
							c5.6,2.9,10.4,7.4,16.8,8.7c13.9-6.7,26.9-15,40.2-22.6c2.9-1.7,6-3.2,9-4.7c0,14.6-0.1,29.1-0.1,43.7c-4.5-1-6.2,2.5-8.8,5
							c-7.2,7-16.2,11.7-25.1,15.9c-6.2,2.9-8.8,6.5-8.6,13.5c0.5,12.2,0.1,12.2-11.5,8.4c-3.9-1.3-7.8-2.5-11.8-2.9
							c-8-0.7-13.6-5.7-19.7-10.1c-2.7-2-5.1-4.4-8.5-5.3c-0.1-20.4-0.3-40.7-0.2-61.1c0-3.9-1.1-6.1-4.5-8
							c-7.3-4-14.4-8.4-21.6-12.7C1175.2,589.8,1173.9,586.6,1174.7,583.2z"/>
						<path class="st1" d="M1247.1,633.9c-6.4-1.3-11.2-5.8-16.8-8.7c-4.2-2.2-3.3-7-1.6-10.4c6.4-12.9,9.2-26.9,11.8-40.8
							c2.1-11.4,3.5-23.1,1.4-35.1c-2.5,14.1-13.4,19.3-24.7,24c-0.9-4.8,1.4-8,5.6-9.6c15.3-5.8,17.5-20.8,15.5-33.8
							c-0.6-4-2.4-7.8-3.4-11.7c-3.6-14.1-13.7-20.3-27-22.9c-9.7-1.9-18.1-6.3-25.2-13.3c2-0.5,3.6,0.6,5.1,1.5
							c7.7,4.8,15.6,7.1,24.4,2.8c2.3-1.1,4.3,0.1,6.3,1.4c2.3,1.5,3.6,0.5,4.1-2.2c1.6-8.3,5.6-15.6,8.8-23.3
							c2.8-6.7,6.2-13.3,7.5-21.2c-8,4.9-14,12-23.3,13.2c0-8.1,3.6-13.4,11.6-16.1c8.8-2.9,11.9-10.1,11.7-18.8
							c-0.1-6.3-0.2-12.4-1.8-18.8c-2.5-10.2-10-16.1-17.1-20.8c-12.6-8.5-27-14.2-40.3-21.7c-6.7-3.8-13.5-7.2-20.5-10.1
							c-3.8-1.6-7-2.1-10.8,0.3c-7.4,4.6-16.3,7-20.4,16c-0.4,0.9-1-1.2-1.8-1.3c0-19.6,0-39.1,0.1-58.7c3.3-4.2,3.3-8.4,0-12.6
							c0-0.8,0-1.7,0-2.5c2.3,0,4.6-0.3,5.8,2.4c8.7,19.7,22.1,35.4,40,47.4c-3.8,4.6-2.4,7.5,2.5,10.5c5,3.1,10.7,5,15.1,9.1
							c3.7,3.4,8,5,13.1,4.4c9.1-1.1,17.2,0,21.3,9.8c0.1,0.4,1.2,0.3,1.8,0.5c-0.3-18.1-0.3-18,7.9-38.4c2.5-6.2,4.4-12.7,6.4-19.1
							c0.5-1.6,1-4.1-0.5-5.1c-2-1.4-3.2,1-4.3,2.2c-5.5,5.9-12.3,9.8-19.4,13.3c0.3-6.9,3.5-11,10-14.3
							c12.3-6.2,16.1-15.8,13.8-30.9c-0.2-1.1-0.7-2.2,0.8-3.8c3.3,6.2,4,12.9,5.1,19.1c1.2,6.8,1.6,14,1.6,21
							C1247.1,415.6,1247.1,524.8,1247.1,633.9z"/>
						<path class="st5" d="M317.5,452c-1.4,5-0.4,7,5,4.5c4.8-2.3,10.1-2.9,15.2-2.8c6.2,0.1,11.5-2.1,17-4.1
							c3.7-1.3,14.7,3.6,15.6,7.3c0.5,2-1.1,2.7-2.5,3.5c-21.2,12.2-42.4,24.4-63.5,36.6c-22.2,12.8-44.3,25.5-66.5,38.3
							c-5.7,3.3-11.4,6.5-17.2,9.7c-1.3,0.7-2.8,1.8-4.3,0.3c-1.2-1.2-0.4-2.4-0.3-3.8c0.3-3.8,2.5-6.4,4.3-9.6
							c4.2-7.5,10.5-12,16.9-17.4c11.1-9.4,23.9-16.4,34.4-26.3c0.6-0.6,1.6-1.1,2.4-1.2c3.8-0.6,7.4-1.8,7.6-6.3
							c0.3-4.6-5.4-1.1-6.5-4.2c10.3-7.7,22-12.9,32.9-19.6C311,455,313.7,452.4,317.5,452z"/>
						<path class="st1" d="M1126.2,402.5c1.3,0.4,2.6,0.6,3.2,2.1c7.8,19.9,20.9,35.9,37.1,49.5c-2.2,3.8-1.7,6.6,2.7,8.3
							c1.4,0.6,2.8,1.4,2.8,3.3c-4-0.5-8-2.1-10.3-4.7c-4.3-5-7.9-2.9-11.8-0.5c-8,4.9-15.9,10.1-23.8,15.1
							C1126.2,451.2,1126.2,426.9,1126.2,402.5z"/>
						<path class="st4" d="M1886.6,756.8c-4.6,4.5-4.5,10.9-6.1,16.4c-5.6,19.1-5.3,19.1-25.3,19.4c-5.2,0.1-10.3,0.7-15.5,1.1
							c12.9-17.5,24.3-35.8,33.5-55.5c13.7,0.5,13.7,0.5,13.5,14.6C1886.8,754.1,1886.7,755.5,1886.6,756.8z"/>
						<path class="st1" d="M1174.7,583.2c-0.8,3.4,0.5,6.6,1.2,9.8c-15.9-9.1-31.7-18.2-47.7-27.2c-2.2-1.2-2.5-2.9-2.4-5.1
							c0.1-12.5,0.2-25,0.3-37.5c1.5,0.3,2.2,1.4,2.8,2.7c8.8,22.1,21.7,41,42.4,53.7c0.7,0.4,0.9,1.5,1.4,2.3
							C1173.3,582.4,1174,582.8,1174.7,583.2L1174.7,583.2z"/>
						<path class="st3" d="M1126.2,281.1c3.3,4.2,3.3,8.4,0,12.6C1125.4,289.4,1125.4,285.2,1126.2,281.1z"/>
						<path class="st3" d="M1836.2,993.3c5.5-6.4,11.5-12.2,17.9-17.7c0.6,1.7,1.9,3.3,0.7,5.1c-4.7,7.2-6.1,15.9-10.3,23.3
							c-1.5,2.6-3.5,6.7-6.9,5c-3.8-1.9-3-6.1-0.8-9.4C1838.5,997.2,1840.3,995.1,1836.2,993.3z"/>
						<path class="st3" d="M1829,999.9c0.6-1.3,1.7-2.2,3.1-2.6C1832,999.3,1831,1000.2,1829,999.9z"/>
						<path class="st3" d="M1871.2,958.7c0.5-0.5,1.1-1,1.6-1.5C1872.7,958.2,1872.2,958.7,1871.2,958.7z"/>
						<path class="st5" d="M608.7,797.8c0.9-1.7,1.8-3.5-0.4-4.7c-21.1-12.1-40.4-27.4-62.6-37.5c-10.6-4.8-18.6-13.2-28.6-18.9
							c-2.7-1.5-5.4-3.2-8.3-4.4c-11.3-5-19.8-14.4-31-19.6c-1.8-0.8-3.4-1.9-5.4-2.4c-6.9-1.8-13-4.4-18.3-9.8
							c-6.7-7-16.4-9.6-24.8-13.9c-13.7-6.9-25.3-16.7-37.5-25.7c-2.1-1.6-4.3-2.5-6.6-3.3c-5.3-1.8-10.2-3.8-13.2-9
							c-0.5-0.9-1.5-1.9-2.5-2.2c-16.4-5-28.2-17.4-42.4-26c-4.7-2.8-9.4-5.6-14.2-8c-6.8-3.3-11.7-8.6-15.9-14.5
							c-3.3-4.6-7.6-7-12.6-9.5c-9.4-4.7-20.9-6.9-25.9-18.2c-3.3-7.3-0.4-23.3,6.4-27.6c9.6-6.1,16.1-15.8,25.2-22
							c9.5-6.5,18-14.7,29.7-18.3c13.7-4.2,24.8-13.6,37-20.9c7.6-4.5,15.9-9.8,25.8-8c2.3,0.4,4.2-0.1,5.6-1.7
							c8.9-10,20.6-10.8,32.7-10.3c1.4,0,2.9,0.4,4.1,0c13-4.9,24.2,3.4,36.3,5.1c7.6,1.1,13,5.8,18,11.3c1.4,1.5,3.8,3.1,6.1,2.4
							c2.5-0.8,3.9,0.3,5.3,1.8c7.6,8.1,17.9,12.1,27.4,17.3c1.1,0.6,2.7,0.6,4,0.6c10.8-0.4,21.2,1.3,30.7,6.2
							c10.2,5.3,20.9,8.8,31.7,12.3c1.9,0.6,4.4,1.3,5.4,2.8c9.4,13.7,26,11.6,38.7,18.1c3.3,1.7,6.1,3.3,8.4,6.4
							c10.3,13.7,22.8,24.7,39.8,29.5c1.4,0.4,2.7,1.5,4,2.5c7.5,6.1,16.1,10,25.4,12.6c4.9,1.4,8.7,5,10.9,9
							c5.9,10.5,16,17,23.5,25.9c9,10.7,20.1,18.9,31.3,27c4.2,3,3.2,8.1,5.2,12.1c4.2,8.4,8.6,16,19.1,17.8
							c3.8,0.7,7.1,3.8,10.6,5.8c15.6,8.9,32.1,15.4,48.4,22.6c4.1,1.8,7,4.8,10.3,7.6c8.2,7,16.6,13.3,27.8,15.9
							c13.9,3.2,27.4,8.9,37.7,19c11.8,11.6,26.3,18.5,40.7,25.4c8.9,4.3,14.2,11.7,20.7,18c7.5,7.2,16.2,12.3,25.3,16.9
							c8.9,4.5,16,11,22.5,18.3c4,4.5,9.6,3.5,14.3,5.4c13.7,5.7,27.9,10.5,41.9,15.4c16.1,5.6,31.1,14.2,48.4,17.1
							c12.2,2.1,24.3,4.9,36.8,5c8.7,0.1,17.1-2.4,25.4-4.4c7.4-1.8,13.2,0.4,19.2,4c5.6,3.3,11,7.1,17.5,8.7
							c13.4,3.2,26-1.1,38.5-4.7c13.7-3.9,27.8-4.8,41.6-7.8c12.7-2.7,25.9-3.2,38.1-8.8c3.6-1.7,7.9-1.7,11.9-2.3
							c10.6-1.5,20.7-5,30.4-9.3c12.4-5.4,22.3-13.8,27.3-26.4c4.5-11.5,13.7-14.3,24-15.9c7.3-1.2,14.9-1.3,22.1-2.9
							c6.3-1.4,12.9-2.6,18-7c7.2-6.2,17.1-4.1,25-7.9c9.2-4.4,18.6-7.8,26.3-15.9c5.7-5.9,11.2-13.3,20-16.3
							c4.3-1.5,7.3-6,8.4-10.3c1.4-5,5.1-7,8.7-9.5c15.8-11.1,33.8-5.1,50.9-6.5c11.5-0.9,23.1,0.7,34.5-1.2
							c0.9-0.2,1.8-0.5,2.7-0.4c16.1,1.5,32.4,0,48.6,2c7.7,1,15.5,2.3,23.4,2.1c16.7-0.5,32.7,4.2,48.7,7.5
							c6.2,1.3,12.8,5.6,17.7,10.8c7.2,7.6,6.7,27.7,1.1,36.9c-3.4,5.6-8.6,10.5-9.1,17.9c-0.4,4.9-5.6,6.5-8.9,8.8
							c-10.6,7.7-16.2,18.8-22.5,29.5c-6.5,11-13,21.6-25.3,27.5c-5.2,2.5-8.5,8.2-12.2,12.5c-6.3,7.4-13.9,12.1-22.6,15.7
							c-10.9,4.5-20.1,12.2-31.5,16c-3.2,1.1-4.3,5.1-6.4,7.8c-4.8,6.4-10.4,11.3-18.7,13.5c-12.1,3.1-23.5,8.1-33.4,16.1
							c-2.6,2.1-6,3.3-9,4.9c-3.8,2-6.8,4.6-6.2,9.5c-31.7,15.1-64.9,26.3-98.4,36.4c-74,22.3-149.5,35.9-226.8,39.3
							c-72.2,3.2-143.7-2.2-214.4-18.1c-65.5-14.7-127.6-38.3-185.9-71.4c-66.6-37.9-132.8-76.5-199.2-114.9
							C656.6,825.9,632.7,811.8,608.7,797.8z"/>
						<path class="st4" d="M608.7,797.8c23.9,14,47.8,28,71.8,41.9c66.3,38.4,132.5,77,199.2,114.9c58.3,33.1,120.4,56.7,185.9,71.4
							c70.7,15.9,142.2,21.3,214.4,18.1c77.3-3.4,152.8-17,226.8-39.3c33.5-10.1,66.7-21.3,98.4-36.4c25.2-9.4,48.7-22.2,72.2-35.1
							c16.4-9,32.3-18.9,47-30.6c12.3-9.8,24.7-19.3,36.9-29.2c12.2-9.8,23.4-20.6,34.8-31.3c14.8-13.9,27.9-29.3,40.7-45
							c6.1,1.3,5.6,5.5,3.4,9.4c-4.8,8.6-8,17.9-12.4,26.6c-5.4,10.9-11.1,21.7-19.2,31c-1.7,2-2.4,4.3-3.5,6.5
							c-1.2,2.4-1.9,5.6-4.5,6.7c-8.5,3.8-11.9,12-17.2,18.6c-4.4,5.7-8.6,11.9-14.3,16.1c-8.6,6.4-16,14.1-23.4,21.5
							c-18.1,18.2-39.6,31.7-59.6,47.2c-10.4,8.1-23.8,11.9-34.1,19.8c-19.7,15-42.8,22.5-64.9,32.1c-29,12.6-58.8,22.9-89.2,31.5
							c-35.5,10.1-71.3,18.9-107.7,25.3c-18.2,3.2-36.6,5.4-54.9,7.7c-29.8,3.7-59.7,3.8-89.6,4.3c-22.5,0.4-44.9-0.2-67.2-1.9
							c-29.1-2.2-58.1-5.9-86.8-11.4c-35.7-6.8-70.8-15.9-105-28c-38-13.4-74.4-30.4-109.4-50.5c-31.5-18-63.1-35.9-94.6-54
							c-30.9-17.8-61.6-35.9-92.5-53.8c-32-18.5-64.1-36.9-96.2-55.4c-30.7-17.7-61.3-35.5-91.9-53.2
							c-27.5-15.9-55.1-31.8-82.6-47.7c-51.3-29.6-102.6-59.1-153.9-88.6c-18.6-10.7-36.4-22.9-55.8-32.3c-1.6-0.8-2.8-2.3-4.1-3.5
							c-4.6-4.1-4.2-7.9,1.6-10c8.8-3.2,16.2-8.8,23.9-13.8c2.1-1.4,3.7-3.3,6.4-3.7c3.9-0.6,5.2-3.1,4.7-6.8
							c43.3,24.9,86.7,49.8,130,74.8c77.2,44.5,154.3,89.1,231.5,133.6C605.4,796.4,607.1,797.1,608.7,797.8z"/>
						<path class="st4" d="M240.4,586c-7.7-2.3-13.5,1.4-19.9,5.2c-9.6,5.7-19.3,11.3-28.9,17c-3.6,2.2-7.9,2.9-11.9-0.5
							c-4.7-4-11.5-5-15.2-10.5c15-9.1,30.9-17,45.4-27c2.2-1.5,3.4-0.2,4.8,0.6C223.3,575.8,231.8,580.9,240.4,586z"/>
						<path class="st1" d="M187.6,555c8,4.6,16,9.1,24,13.7c-0.3,0.5-0.6,1.1-0.9,1.6c-9.1-2.3-15.8-9.3-24.1-13.3
							C187,556.3,187.3,555.6,187.6,555z"/>
						<path class="st3" d="M162.8,610.2c0.6,2.6,0.6,5.2-0.1,7.8C157.9,615.4,157.7,612.7,162.8,610.2z"/>
						<path class="st2" d="M1148.8,211.8c-1.8,0.4-3.5,0.7-5.9,1.2c22.6-16.6,40.5-19.8,62.4,0.4c15.6,14.4,23.1,32.5,22.5,53.9
							c-0.2,6.4-2.8,11.3-8.9,14.1c-1.8,0.8-3.4,1.6-4.1-1.3c-3.3-14.2-10.6-26.4-18.6-38.3c5.8-0.9,5.2-5.3,4.1-8.8
							c-6.2-19.5-19.8-27.7-39.4-25.1c-2.4,0.3-5.8,0.7-5.3,4.7c-1.4-0.2-2.8-0.3-4.2-0.5c-0.2-0.8-0.4-1.7-1.5-1.5
							C1149.5,210.6,1149.2,211.3,1148.8,211.8z"/>
						<path class="st4" d="M1215.8,315.4c7.1-3.5,13.9-7.4,19.4-13.3c1.1-1.2,2.3-3.6,4.3-2.2c1.5,1.1,1,3.5,0.5,5.1
							c-2,6.4-3.9,12.9-6.4,19.1c-8.1,20.4-8.2,20.3-7.9,38.4c-0.7-0.2-1.7-0.2-1.8-0.5c-4.1-9.8-12.2-10.9-21.3-9.8
							c-5.1,0.6-9.4-1-13.1-4.4c-4.4-4.1-10.1-6-15.1-9.1c-4.9-3-6.3-5.9-2.5-10.5c4.7,1.6,9.3,3.9,14.1,4.5
							C1198.5,334.6,1209.2,331.5,1215.8,315.4z"/>
						<path class="st5" d="M1155.6,212.5c-0.5-4.1,2.9-4.4,5.3-4.7c19.6-2.5,33.2,5.6,39.4,25.1c1.1,3.6,1.8,8-4.1,8.8
							c-7.4-8.2-14.6-16.7-24.3-22.5C1166.7,216.2,1161.2,214.2,1155.6,212.5z"/>
						<path class="st5" d="M1148.8,211.8c0.4-0.4,0.7-1.2,1.1-1.3c1-0.2,1.3,0.7,1.5,1.5C1150.5,211.9,1149.7,211.8,1148.8,211.8z"
							/>
						<path class="st4" d="M1171.9,465.7c0-1.9-1.3-2.8-2.8-3.3c-4.4-1.7-4.9-4.6-2.7-8.3c5.1,2.3,10.1,5.2,15.4,6.8
							c16.1,4.7,27-1,33.7-17.1c9.3-1.1,15.2-8.3,23.3-13.2c-1.3,7.9-4.7,14.5-7.5,21.2c-3.2,7.7-7.2,15-8.8,23.3
							c-0.5,2.8-1.8,3.7-4.1,2.2c-2-1.3-4-2.5-6.3-1.4c-8.8,4.3-16.7,2-24.4-2.8c-1.5-0.9-3.1-2-5.1-1.5c-0.4-0.2-0.8-0.3-1.3-0.3
							c-0.1-1.9-0.9-2.8-2.9-2.3C1176.5,467.5,1174.4,466.2,1171.9,465.7z"/>
						<path class="st1" d="M1178.5,469c2-0.5,2.8,0.4,2.9,2.3C1179.8,471.3,1178.9,470.5,1178.5,469z"/>
						<path class="st4" d="M1174.7,583.3c-0.7-0.5-1.4-0.9-2.1-1.4C1173.7,581.8,1174.4,582.3,1174.7,583.3z"/>
					</g>
					<path class="st5" d="M1126.2,143.7l121.4-61.3l125,58.8c-42.1,24.1-84.2,48.2-126.3,72.3C1206.3,190.3,1166.3,167,1126.2,143.7
						z"/>
				</g>
			</g>
			<defs>
				<filter id="Adobe_OpacityMaskFilter" filterUnits="userSpaceOnUse" x="41.8" y="82.4" width="1916.4" height="1303.2">
					
						<feColorMatrix  type="matrix" values="-1 0 0 0 1  0 -1 0 0 1  0 0 -1 0 1  0 0 0 1 0" color-interpolation-filters="sRGB" result="source"/>
				</filter>
			</defs>
			<mask maskUnits="userSpaceOnUse" x="41.8" y="82.4" width="1916.4" height="1303.2" id="SVGID_1_">
				<g class="st6">
					
						<image style="overflow:visible;" width="1922" height="1308" xlink:href="1C7322A340962E13.jpg"  transform="matrix(1 0 0 1 39 80)">
					</image>
				</g>
			</mask>
			<g class="st7">
				<g>
					<g>
						<path class="st8" d="M1957.7,801.4c0.1,59.7,0.8,119.4,0,179c-0.4,31.3-11.4,60.2-27,87.1c-34.4,59.3-83.4,105.1-136.2,147.6
							c-45.5,36.7-96.9,62.5-149.9,85.8c-73,32-149.1,54.1-227.4,68.4c-73.3,13.4-147.1,18.6-221.6,15.2
							c-60.5-2.8-120-11.6-178.5-26.8c-61.7-16.1-120.8-39.3-176-71.1C577.2,1134.8,313.7,982.4,50,830.3c-6.1-3.5-8.2-7.3-8.2-14.3
							c0.3-56.9,0.2-113.9,0.2-170.8c0-2.2,0.4-4.5,0.6-6.7c1.4,0.8,2.8,1.5,4.2,2.3C183,719.4,319.2,798,455.4,876.7
							c76,43.9,152,87.9,228,131.8c42.3,24.5,84.6,49,126.8,73.5c31.3,18.1,63.1,35.4,96.3,49.9c49.6,21.6,101.1,37.8,154,48.7
							c53.7,11,108,16.8,162.8,17.5c70.6,0.9,140.5-5.3,209.8-19.3c43.9-8.9,87.3-19.8,130-33.5c4.7-1.5,9.2-3.7,13.9-5.3
							c10.1-3.4,20.7-5.6,30.3-10c10-4.5,20.5-8.1,30.3-13.2c12.6-6.4,26-11,38.7-17.2c17.8-8.7,34.9-18.9,52.8-27.3
							c12-5.6,23-12.8,33.8-20.2c17.4-11.9,33.4-25.7,49.6-39.1c5.4-4.5,11.7-7.7,16.4-13c2,0.3,3.1-0.5,3.1-2.6
							c1.4-1.3,2.7-2.7,4.1-4c4.1,1.7,2.2,3.9,0.6,6.3c-2.2,3.3-3.1,7.5,0.8,9.4c3.4,1.7,5.4-2.4,6.9-5c4.2-7.4,5.6-16.1,10.3-23.3
							c1.2-1.8-0.1-3.4-0.7-5.1c5.7-5.6,11.4-11.3,17.1-16.9c1,0,1.5-0.5,1.6-1.5c13.2-12.8,24.3-27.3,35.1-42.1
							C1933,881,1952.4,844.2,1957.7,801.4z"/>
						<path class="st8" d="M1871.2,958.8c-5.7,5.6-11.4,11.3-17.1,16.9c-6.4,5.5-12.4,11.3-17.9,17.7c-1.4,1.3-2.7,2.7-4.1,4
							c-1.4,0.4-2.5,1.2-3.1,2.6c-4.7,5.3-11.1,8.5-16.4,13c-16.2,13.5-32.2,27.2-49.6,39.1c-10.8,7.4-21.8,14.6-33.8,20.2
							c-17.9,8.4-35,18.5-52.8,27.3c-12.7,6.2-26.2,10.8-38.7,17.2c-9.9,5.1-20.3,8.7-30.3,13.2c-9.6,4.3-20.2,6.6-30.3,10
							c-4.7,1.6-9.2,3.8-13.9,5.3c-42.7,13.8-86,24.6-130,33.5c-69.3,14-139.2,20.2-209.8,19.3c-54.8-0.7-109.1-6.4-162.8-17.5
							c-53-10.9-104.4-27-154-48.7c-33.2-14.5-65-31.7-96.3-49.9c-42.3-24.5-84.5-49-126.8-73.5c-76-44-152-87.9-228-131.8
							C319.2,798,183,719.4,46.7,640.7c-1.4-0.8-2.8-1.5-4.2-2.3c10.6-8.3,22.7-14,34.2-20.7c33.7-19.6,67.5-39,101.3-58.5
							c7-4,6.8-4.6-0.5-8.6c-4.7-2.6-12-4.8-12.2-9.6c-0.2-4.6,7.5-6.1,11.9-8.6c24.7-14.4,49.4-28.8,74.2-43.1
							c7.8-4.5,15.8-8.5,23.6-12.8c1.1,3.1,6.8-0.4,6.5,4.2c-0.2,4.5-3.8,5.7-7.6,6.3c-0.9,0.1-1.8,0.6-2.4,1.2
							c-10.5,10-23.3,17-34.4,26.3c-6.4,5.4-12.7,9.9-16.9,17.4c-1.8,3.1-4,5.8-4.3,9.6c-0.1,1.3-0.9,2.6,0.3,3.8
							c1.6,1.5,3,0.4,4.3-0.3c5.8-3.2,11.5-6.4,17.2-9.7c22.2-12.7,44.3-25.5,66.5-38.3c21.2-12.2,42.4-24.4,63.5-36.6
							c1.4-0.8,3-1.5,2.5-3.5c-0.9-3.7-11.9-8.6-15.6-7.3c-5.5,1.9-10.8,4.2-17,4.1c-5.1-0.1-10.4,0.5-15.2,2.8
							c-5.4,2.6-6.4,0.5-5-4.5c16.6-9.9,33.1-19.8,49.8-29.5c25.3-14.7,50.9-29.1,76.2-44c4.8-2.8,8.4-3.5,13.6-0.5
							c70.6,40.8,141.8,80.4,212,121.9c30.2,17.8,60.4,35.7,90.8,53.2c41.6,23.9,83.6,47.3,125.2,71.3
							c27.3,15.8,54.8,31.5,81.9,47.7c25.7,15.4,52.2,29.5,78.1,44.5c28.8,16.6,57.6,33.1,86.4,49.7c20,11.6,41.4,19.8,63.7,25.7
							c2.1,0.6,4.5,0.3,6.8,0.4c6.5,4.4,14.2,4,21.5,5c24.5,3.3,49,3.5,73.4-0.8c35.5-5.1,68.7-16.7,99.3-35.6
							c13.3-8.3,26.5-16.8,38.3-27.3c15.2-13.6,28.3-28.4,30.6-49.9c0.5-4.6,3-5.1,6.9-5.1c57.4,0.2,114.8-0.6,172.1,0.6
							c78.1,1.5,156.1,0.4,234.2,1.1c9.7,0.1,9.9,0.3,8.6,10.1c-2.3,16.5-6.7,32.4-13.4,47.7c-9.2,19.7-20.6,38.1-33.5,55.5
							c-1.5,0.8-2.4,2-2.8,3.6c-12.8,15.7-25.9,31.1-40.7,45c-11.4,10.7-22.6,21.5-34.8,31.3c-12.2,9.8-24.6,19.4-36.9,29.2
							c-14.7,11.7-30.6,21.6-47,30.6c-23.5,12.9-47,25.7-72.2,35.1c-0.6-4.9,2.4-7.5,6.2-9.5c3-1.6,6.4-2.8,9-4.9
							c9.9-8,21.3-13,33.4-16.1c8.3-2.1,13.8-7.1,18.7-13.5c2-2.7,3.2-6.8,6.4-7.8c11.3-3.7,20.6-11.5,31.5-16
							c8.7-3.6,16.3-8.2,22.6-15.7c3.7-4.4,6.9-10,12.2-12.5c12.3-5.9,18.8-16.5,25.3-27.5c6.3-10.6,12-21.8,22.5-29.5
							c3.2-2.3,8.5-3.9,8.9-8.8c0.6-7.3,5.7-12.3,9.1-17.9c5.6-9.2,6.1-29.3-1.1-36.9c-4.9-5.1-11.5-9.5-17.7-10.8
							c-16-3.3-32.1-7.9-48.7-7.5c-7.9,0.2-15.8-1.1-23.4-2.1c-16.2-2-32.4-0.5-48.6-2c-0.9-0.1-1.8,0.2-2.7,0.4
							c-11.5,1.9-23,0.3-34.5,1.2c-17.1,1.4-35-4.6-50.9,6.5c-3.6,2.5-7.3,4.5-8.7,9.5c-1.2,4.3-4.2,8.8-8.4,10.3
							c-8.8,3.1-14.3,10.5-20,16.3c-7.7,8.1-17.1,11.4-26.3,15.9c-8,3.8-17.8,1.7-25,7.9c-5.2,4.4-11.8,5.6-18,7
							c-7.2,1.6-14.8,1.7-22.1,2.9c-10.3,1.7-19.4,4.5-24,15.9c-5,12.5-14.9,21-27.3,26.4c-9.8,4.3-19.8,7.8-30.4,9.3
							c-4,0.6-8.4,0.6-11.9,2.3c-12.1,5.7-25.3,6.1-38.1,8.8c-13.8,3-27.9,3.8-41.6,7.8c-12.4,3.6-25.1,7.9-38.5,4.7
							c-6.5-1.6-11.9-5.4-17.5-8.7c-6-3.5-11.8-5.7-19.2-4c-8.3,2-16.6,4.5-25.4,4.4c-12.5-0.1-24.6-2.9-36.8-5
							c-17.3-2.9-32.3-11.4-48.4-17.1c-14-4.9-28.1-9.6-41.9-15.4c-4.7-2-10.3-0.9-14.3-5.4c-6.5-7.2-13.6-13.8-22.5-18.3
							c-9.1-4.6-17.9-9.7-25.3-16.9c-6.6-6.3-11.8-13.7-20.7-18c-14.4-6.9-28.8-13.9-40.7-25.4c-10.3-10.1-23.8-15.9-37.7-19
							c-11.2-2.6-19.6-8.9-27.8-15.9c-3.3-2.8-6.2-5.8-10.3-7.6c-16.3-7.2-32.9-13.8-48.4-22.6c-3.5-2-6.8-5.1-10.6-5.8
							c-10.5-1.9-14.8-9.4-19.1-17.8c-2-4-1-9.1-5.2-12.1c-11.2-8.1-22.3-16.3-31.3-27c-7.5-8.9-17.6-15.3-23.5-25.9
							c-2.2-3.9-5.9-7.6-10.9-9c-9.3-2.6-17.9-6.5-25.4-12.6c-1.2-1-2.5-2.1-4-2.5c-17-4.8-29.5-15.7-39.8-29.5
							c-2.3-3.1-5.1-4.7-8.4-6.4c-12.7-6.5-29.3-4.4-38.7-18.1c-1-1.5-3.5-2.1-5.4-2.8c-10.8-3.5-21.5-7.1-31.7-12.3
							c-9.5-4.9-20-6.6-30.7-6.2c-1.3,0-2.9,0-4-0.6c-9.5-5.1-19.7-9.1-27.4-17.3c-1.4-1.5-2.8-2.7-5.3-1.8
							c-2.3,0.8-4.7-0.8-6.1-2.4c-5-5.5-10.4-10.2-18-11.3c-12.1-1.7-23.2-9.9-36.3-5.1c-1.2,0.4-2.7,0.1-4.1,0
							c-12.1-0.4-23.8,0.3-32.7,10.3c-1.4,1.5-3.3,2.1-5.6,1.7c-9.9-1.8-18.2,3.5-25.8,8c-12.2,7.2-23.3,16.7-37,20.9
							c-11.7,3.6-20.2,11.8-29.7,18.3c-9,6.2-15.6,15.9-25.2,22c-6.8,4.3-9.7,20.3-6.4,27.6c5.1,11.3,16.6,13.4,25.9,18.2
							c5,2.5,9.3,5,12.6,9.5c4.3,5.9,9.1,11.2,15.9,14.5c4.9,2.4,9.6,5.1,14.2,8c14.2,8.6,26,21,42.4,26c1,0.3,2,1.3,2.5,2.2
							c3,5.2,7.9,7.2,13.2,9c2.3,0.8,4.5,1.7,6.6,3.3c12.2,9,23.8,18.8,37.5,25.7c8.5,4.3,18.1,6.9,24.8,13.9
							c5.2,5.4,11.4,8.1,18.3,9.8c2,0.5,3.6,1.6,5.4,2.4c11.2,5.2,19.7,14.6,31,19.6c2.9,1.3,5.6,2.9,8.3,4.4
							c10,5.7,18,14.1,28.6,18.9c22.3,10.1,41.5,25.4,62.6,37.5c2.2,1.3,1.3,3.1,0.4,4.7c-1.6-0.8-3.3-1.4-4.9-2.3
							c-77.2-44.5-154.3-89.1-231.5-133.6c-43.3-25-86.7-49.9-130-74.8c-0.3-1-1-1.3-2-1.1c-8.6-5.1-17.1-10.1-25.8-15.1
							c-1.4-0.8-2.6-2.2-4.8-0.6c-14.5,10.1-30.3,17.9-45.4,27c-3.9,3.9-0.9,8.7-1.8,13c-5,2.5-4.8,5.2-0.1,7.8
							c0.1,0.7,0.3,1.5,0.4,2.2c-3.8,2.4-3.1,5.6-1.6,9c3,6.6,7.9,11.9,13.7,15.7c15.2,9.9,31.3,18.7,46.3,28.9
							c7.7,5.2,16.3,8.9,23.7,14.4c8.2,6.1,17.8,9.5,26.3,15c9.8,6.3,20.9,10.5,30.4,17.2c8.5,6,17.9,10.5,26.7,15.9
							c12.3,7.6,24.8,14.9,37.6,21.6c6.8,3.6,12.4,9.4,19.4,11.9c12.4,4.4,23.1,11.7,34,18.5c7.3,4.5,14.3,10.7,22.2,12.8
							c13,3.3,22.5,12.3,33.8,18.1c7.4,3.8,14.9,8.2,22,13c12.2,8.1,25.7,14.2,38,22.3c12.3,8.1,25.4,15.5,38.5,21.9
							c16.7,8.3,31.3,20.9,49.9,25.4c5.1,1.2,8.2,6.1,13,8.5c7.7,3.8,15.2,8,22.7,12.1c12.4,6.8,24.3,14.7,36.6,21.8
							c20.7,11.9,41.7,23.2,62.2,35.4c13.8,8.2,27.9,16,41.6,24.3c18.8,11.4,38.9,20.7,57.6,32.3c19.3,12,40,20.9,60.2,30.8
							c10.9,5.4,23,8.3,34,13.2c22.1,9.8,44.8,17.2,67.9,23.6c14.3,4,28.5,8.2,43.1,11.1c21.4,4.3,42.9,7.7,64.4,11
							c21,3.2,42.1,4.8,63.3,5.7c9.6,0.4,19.1,1,28.7,1.2c13.4,0.2,26.7,0.1,40.1,0.2c13.6,0.2,27.2-2.6,40.7-2.1
							c14.5,0.6,28.4-2.4,42.6-3.4c13.5-0.9,26.8-3.2,40.2-5.5c13.1-2.2,26.5-2.6,39.7-4.9c8.9-1.6,17.2-4.9,26.1-6.4
							c11.1-1.9,22.2-3.4,32.9-7.1c7.9-2.7,15.8-5,24-6.8c5.7-1.2,11.5-2.8,16.8-5c15.2-6.2,31.2-10.2,46.6-15.8
							c11-4,22-8.2,32.8-12.7c14.7-6.1,29-13.3,43.8-19.2c16.2-6.5,30.8-16.1,46.3-23.9c7.6-3.8,15.1-9.1,22.5-13.8
							c20.7-13.1,39.6-28.5,58.9-43.3c5.4-4.1,9.2-10.1,14.5-14c8.7-6.3,16.3-13.7,24.2-20.8c10-8.9,18.1-19.5,27-29.5
							c21.5-24.2,39.4-50.6,50.8-81c2.9-7.6,8.5-14.9,5.4-24c4.2-2.6,8.9-1.6,13.1-1.1c14.4,1.6,28.9,0.9,43.3,0.9
							c6.2,0,7.6,2.3,6.1,7.7c-5.3,42.9-24.7,79.6-49.7,113.8c-10.8,14.8-22,29.3-35.1,42.1C1872.3,957.8,1871.8,958.3,1871.2,958.8
							z M187.6,555c-0.3,0.7-0.6,1.4-0.9,2c8.3,3.9,14.9,10.9,24.1,13.3c0.3-0.5,0.6-1.1,0.9-1.6C203.6,564.1,195.6,559.5,187.6,555
							z"/>
						<path class="st8" d="M1126.6,278.5c-0.5-17.6-2.3-35.1-0.9-52.9c1.9-24.9,0.5-50.1,0.5-75.1c0-2.2,0-4.4,0-6.6
							c3.1-0.3,4.8,1.5,6.7,2.5c35.5,20.4,71.2,40.6,106.3,61.7c6.7,4,10.6,3.4,16.6-0.2c36.7-21.6,73.6-42.7,110.5-64
							c6.9-4,6.9-3.9,6.9,4.1c0,135.7,0,271.4,0.2,407.2c0,5-1.5,7.6-5.8,10.1c-23.7,13.5-47.2,27.4-70.8,41.2c-3,1.6-6.1,3-9,4.7
							c-13.3,7.7-26.3,15.9-40.2,22.6c0-109.1,0-218.2-0.1-327.4c0-7-0.4-14.2-1.6-21c-1.1-6.2-1.8-13-5.1-19.1
							c-1.4,1.6-0.9,2.7-0.8,3.8c2.3,15.1-1.5,24.7-13.8,30.9c-6.5,3.3-9.7,7.4-10,14.3c-6.6,16.1-17.2,19.2-29.7,17.4
							c-4.8-0.7-9.4-3-14.1-4.5c-17.9-12-31.3-27.6-40-47.4C1131.2,278.2,1128.9,278.5,1126.6,278.5z M1151.4,212
							c1.4,0.2,2.8,0.3,4.2,0.5c5.7,1.7,11.1,3.7,16.3,6.8c9.7,5.8,16.9,14.3,24.3,22.5c8.1,11.8,15.3,24.1,18.6,38.3
							c0.7,2.9,2.3,2.1,4.1,1.3c6.1-2.7,8.7-7.7,8.9-14.1c0.6-21.3-6.9-39.5-22.5-53.9c-21.9-20.2-39.8-17-62.4-0.4
							c2.4-0.5,4.1-0.8,5.9-1.2C1149.7,211.8,1150.5,211.9,1151.4,212z"/>
						<path class="st8" d="M163.1,620.2c-0.1-0.7-0.3-1.5-0.4-2.2c0.7-2.6,0.7-5.2,0.1-7.8c0.9-4.3-2.1-9.1,1.8-13
							c3.8,5.4,10.5,6.5,15.2,10.5c4,3.4,8.3,2.7,11.9,0.5c9.6-5.8,19.2-11.4,28.9-17c6.4-3.8,12.2-7.5,19.9-5.2
							c1-0.2,1.7,0.1,2,1.1c0.5,3.7-0.8,6.2-4.7,6.8c-2.6,0.4-4.3,2.3-6.4,3.7c-7.7,5-15.1,10.5-23.9,13.8c-5.8,2.1-6.2,5.9-1.6,10
							c1.4,1.2,2.5,2.8,4.1,3.5c19.4,9.4,37.2,21.5,55.8,32.3c51.3,29.5,102.6,59.1,153.9,88.6c27.6,15.9,55.1,31.8,82.6,47.7
							c30.6,17.7,61.2,35.5,91.9,53.2c32,18.5,64.2,36.9,96.2,55.4c30.9,17.9,61.6,36,92.5,53.8c31.4,18.1,63.1,36,94.6,54
							c35,20,71.4,37.1,109.4,50.5c34.3,12.1,69.3,21.1,105,28c28.8,5.5,57.7,9.2,86.8,11.4c22.3,1.7,44.8,2.3,67.2,1.9
							c29.9-0.6,59.8-0.6,89.6-4.3c18.4-2.3,36.7-4.5,54.9-7.7c36.4-6.4,72.2-15.3,107.7-25.3c30.4-8.6,60.3-18.9,89.2-31.5
							c22.1-9.6,45.2-17,64.9-32.1c10.3-7.8,23.7-11.7,34.1-19.8c20-15.5,41.5-29,59.6-47.2c7.4-7.4,14.8-15.1,23.4-21.5
							c5.6-4.2,9.8-10.4,14.3-16.1c5.2-6.7,8.6-14.9,17.2-18.6c2.6-1.1,3.3-4.3,4.5-6.7c1.1-2.2,1.7-4.5,3.5-6.5
							c8.1-9.2,13.7-20.1,19.2-31c4.4-8.7,7.5-18.1,12.4-26.6c2.2-3.9,2.7-8.1-3.4-9.4c0.4-1.6,1.4-2.8,2.8-3.6
							c5.2-0.4,10.3-1.1,15.5-1.1c19.9-0.2,19.6-0.3,25.3-19.4c1.6-5.5,1.5-11.9,6.1-16.4c1,11.9,0.5,23.7,0.3,35.6
							c-3.8-0.3-6.2,0.5-7.2,5.1c-2.3,10.5-7.1,20.2-11.8,29.7c-13.2,26.7-31.1,50.2-50.8,72.2c-31.5,35.1-67.8,65-106.5,91.7
							c-41.1,28.3-86.5,48.7-132.5,67.4c-39.3,15.9-79.8,28.6-121.1,38.4c-32.4,7.7-65,14-98.1,18.5c-26.5,3.6-53.2,6.2-79.8,7.3
							c-27.4,1.2-55,1-82.6-0.6c-30.1-1.8-60-4.8-89.8-9.7c-45.4-7.5-89.5-19.4-132.6-35.3c-51.1-18.8-98-45.7-144.8-73
							c-33.6-19.6-67.3-38.9-100.9-58.3c-36.4-21-72.8-42-109.2-63.1c-33.8-19.6-67.7-39.1-101.5-58.7
							c-34.1-19.7-68.1-39.3-102.2-58.9c-33.9-19.5-67.7-39.1-101.5-58.7c-34.1-19.7-68.1-39.4-102.2-58.9
							C195.5,638.5,179.8,628.4,163.1,620.2z"/>
						<path class="st8" d="M163.1,620.2c16.7,8.2,32.4,18.3,48.6,27.5c34.2,19.5,68.2,39.2,102.2,58.9
							c33.9,19.5,67.7,39.1,101.5,58.7c34.1,19.7,68.1,39.3,102.2,58.9c33.9,19.5,67.7,39.1,101.5,58.7
							c36.4,21,72.8,42.1,109.2,63.1c33.7,19.4,67.4,38.8,100.9,58.3c46.8,27.3,93.7,54.1,144.8,73c43.1,15.9,87.2,27.8,132.6,35.3
							c29.8,4.9,59.7,7.9,89.8,9.7c27.5,1.6,55.1,1.8,82.6,0.6c26.6-1.2,53.3-3.7,79.8-7.3c33.1-4.5,65.8-10.8,98.1-18.5
							c41.2-9.8,81.8-22.5,121.1-38.4c46-18.7,91.4-39.1,132.5-67.4c38.7-26.7,75-56.6,106.5-91.7c19.7-22,37.6-45.6,50.8-72.2
							c4.7-9.6,9.5-19.2,11.8-29.7c1-4.6,3.4-5.4,7.2-5.1c2.4,2.2,5.4,1.2,8.2,1.4c3.1,9.1-2.6,16.4-5.4,24
							c-11.4,30.4-29.3,56.8-50.8,81c-8.9,10-17,20.6-27,29.5c-8,7.1-15.5,14.5-24.2,20.8c-5.3,3.9-9.1,9.9-14.5,14
							c-19.3,14.8-38.2,30.2-58.9,43.3c-7.4,4.7-14.9,9.9-22.5,13.8c-15.5,7.8-30,17.5-46.3,23.9c-14.8,5.9-29.1,13.1-43.8,19.2
							c-10.8,4.5-21.7,8.7-32.8,12.7c-15.4,5.6-31.4,9.6-46.6,15.8c-5.3,2.2-11.1,3.7-16.8,5c-8.2,1.8-16.1,4.1-24,6.8
							c-10.7,3.7-21.8,5.3-32.9,7.1c-8.8,1.5-17.2,4.8-26.1,6.4c-13.2,2.3-26.6,2.7-39.7,4.9c-13.4,2.3-26.7,4.6-40.2,5.5
							c-14.2,0.9-28.1,3.9-42.6,3.4c-13.4-0.5-27,2.2-40.7,2.1c-13.4-0.2-26.7,0-40.1-0.2c-9.6-0.2-19.1-0.8-28.7-1.2
							c-21.2-0.9-42.3-2.5-63.3-5.7c-21.5-3.3-43.1-6.7-64.4-11c-14.5-2.9-28.8-7.1-43.1-11.1c-23.1-6.4-45.9-13.8-67.9-23.6
							c-11-4.9-23.1-7.8-34-13.2c-20.2-10-40.9-18.9-60.2-30.8c-18.7-11.6-38.8-20.8-57.6-32.3c-13.7-8.3-27.8-16.1-41.6-24.3
							c-20.5-12.2-41.5-23.5-62.2-35.4c-12.3-7.1-24.1-15-36.6-21.8c-7.5-4.1-15-8.3-22.7-12.1c-4.8-2.3-7.9-7.2-13-8.5
							c-18.6-4.5-33.2-17.1-49.9-25.4c-13.1-6.5-26.2-13.8-38.5-21.9c-12.3-8.1-25.8-14.2-38-22.3c-7.1-4.8-14.6-9.2-22-13
							c-11.3-5.8-20.8-14.8-33.8-18.1c-8-2.1-15-8.3-22.2-12.8c-11-6.8-21.6-14.1-34-18.5c-7.1-2.5-12.6-8.3-19.4-11.9
							c-12.8-6.7-25.3-14-37.6-21.6c-8.8-5.5-18.1-9.9-26.7-15.9c-9.4-6.7-20.6-11-30.4-17.2c-8.5-5.5-18.1-8.9-26.3-15
							c-7.4-5.5-16-9.2-23.7-14.4c-15-10.2-31.1-19-46.3-28.9c-5.8-3.8-10.7-9.1-13.7-15.7C160,625.8,159.3,622.6,163.1,620.2z"/>
						<path class="st8" d="M1296.7,796.6c-24.4,4.4-48.9,4.1-73.4,0.8c-7.3-1-15-0.6-21.5-5c0-36.7,0-73.4,0.1-110.1
							c0-2.5,0.2-5,0.4-7.4c3.4,0.9,5.8,3.4,8.5,5.3c6,4.3,11.7,9.3,19.7,10.1c4,0.4,8,1.7,11.8,2.9c11.6,3.8,12,3.8,11.5-8.4
							c-0.3-7,2.4-10.6,8.6-13.5c9-4.2,17.9-8.9,25.1-15.9c2.5-2.5,4.3-6,8.8-5c0.1,9.7,0.3,19.5,0.3,29.2
							C1296.6,718.5,1296.7,757.6,1296.7,796.6z"/>
						<path class="st8" d="M1126.1,523.3c-2.5-15.9-3.1-31.8,0.1-47.6c7.9-5.1,15.8-10.2,23.8-15.1c3.8-2.4,7.5-4.4,11.8,0.5
							c2.3,2.6,6.3,4.3,10.3,4.7c2.5,0.5,4.6,1.8,6.6,3.2c0.3,1.6,1.3,2.3,2.9,2.3c0.4,0,0.9,0.2,1.3,0.3c7,7,15.5,11.4,25.2,13.3
							c13.3,2.6,23.4,8.9,27,22.9c1,3.9,2.8,7.7,3.4,11.7c2,12.9-0.1,28-15.5,33.8c-4.2,1.6-6.5,4.8-5.6,9.6
							c-0.6,1.7-1.1,3.4-1.7,5.1c-4.8,13.7-16.8,20.4-31,17.2c-3.3-0.7-6.5-1.4-9.8-2.1l0.1,0.1c-0.3-1-1-1.5-2.1-1.4
							c-0.5-0.8-0.7-1.8-1.4-2.3c-20.7-12.7-33.6-31.6-42.4-53.7C1128.3,524.7,1127.6,523.5,1126.1,523.3z"/>
						<path class="st8" d="M1126.2,402.5c-1.7-16.7-3.7-33.5,0-50.2c0.9,0.1,1.4,2.2,1.8,1.3c4.1-8.9,13-11.3,20.4-16
							c3.9-2.4,7-1.9,10.8-0.3c7.1,3,13.8,6.4,20.5,10.1c13.3,7.5,27.7,13.2,40.3,21.7c7.1,4.8,14.6,10.7,17.1,20.8
							c1.5,6.4,1.6,12.5,1.8,18.8c0.2,8.7-2.9,15.9-11.7,18.8c-8,2.7-11.6,7.9-11.6,16.1c-6.7,16.1-17.5,21.8-33.7,17.1
							c-5.3-1.6-10.3-4.5-15.4-6.8c-16.2-13.6-29.3-29.6-37.1-49.5C1128.8,403.1,1127.5,402.9,1126.2,402.5z"/>
						<path class="st8" d="M1174.7,583.2c3.3,0.7,6.5,1.4,9.8,2.1c14.2,3.1,26.2-3.6,31-17.2c0.6-1.7,1.1-3.4,1.7-5.1
							c11.3-4.7,22.1-9.9,24.7-24c2.1,12.1,0.7,23.8-1.4,35.1c-2.6,13.9-5.4,27.8-11.8,40.8c-1.6,3.3-2.5,8.2,1.6,10.4
							c5.6,2.9,10.4,7.4,16.8,8.7c13.9-6.7,26.9-15,40.2-22.6c2.9-1.7,6-3.2,9-4.7c0,14.6-0.1,29.1-0.1,43.7c-4.5-1-6.2,2.5-8.8,5
							c-7.2,7-16.2,11.7-25.1,15.9c-6.2,2.9-8.8,6.5-8.6,13.5c0.5,12.2,0.1,12.2-11.5,8.4c-3.9-1.3-7.8-2.5-11.8-2.9
							c-8-0.7-13.6-5.7-19.7-10.1c-2.7-2-5.1-4.4-8.5-5.3c-0.1-20.4-0.3-40.7-0.2-61.1c0-3.9-1.1-6.1-4.5-8
							c-7.3-4-14.4-8.4-21.6-12.7C1175.2,589.8,1173.9,586.6,1174.7,583.2z"/>
						<path class="st8" d="M1247.1,633.9c-6.4-1.3-11.2-5.8-16.8-8.7c-4.2-2.2-3.3-7-1.6-10.4c6.4-12.9,9.2-26.9,11.8-40.8
							c2.1-11.4,3.5-23.1,1.4-35.1c-2.5,14.1-13.4,19.3-24.7,24c-0.9-4.8,1.4-8,5.6-9.6c15.3-5.8,17.5-20.8,15.5-33.8
							c-0.6-4-2.4-7.8-3.4-11.7c-3.6-14.1-13.7-20.3-27-22.9c-9.7-1.9-18.1-6.3-25.2-13.3c2-0.5,3.6,0.6,5.1,1.5
							c7.7,4.8,15.6,7.1,24.4,2.8c2.3-1.1,4.3,0.1,6.3,1.4c2.3,1.5,3.6,0.5,4.1-2.2c1.6-8.3,5.6-15.6,8.8-23.3
							c2.8-6.7,6.2-13.3,7.5-21.2c-8,4.9-14,12-23.3,13.2c0-8.1,3.6-13.4,11.6-16.1c8.8-2.9,11.9-10.1,11.7-18.8
							c-0.1-6.3-0.2-12.4-1.8-18.8c-2.5-10.2-10-16.1-17.1-20.8c-12.6-8.5-27-14.2-40.3-21.7c-6.7-3.8-13.5-7.2-20.5-10.1
							c-3.8-1.6-7-2.1-10.8,0.3c-7.4,4.6-16.3,7-20.4,16c-0.4,0.9-1-1.2-1.8-1.3c0-19.6,0-39.1,0.1-58.7c3.3-4.2,3.3-8.4,0-12.6
							c0-0.8,0-1.7,0-2.5c2.3,0,4.6-0.3,5.8,2.4c8.7,19.7,22.1,35.4,40,47.4c-3.8,4.6-2.4,7.5,2.5,10.5c5,3.1,10.7,5,15.1,9.1
							c3.7,3.4,8,5,13.1,4.4c9.1-1.1,17.2,0,21.3,9.8c0.1,0.4,1.2,0.3,1.8,0.5c-0.3-18.1-0.3-18,7.9-38.4c2.5-6.2,4.4-12.7,6.4-19.1
							c0.5-1.6,1-4.1-0.5-5.1c-2-1.4-3.2,1-4.3,2.2c-5.5,5.9-12.3,9.8-19.4,13.3c0.3-6.9,3.5-11,10-14.3
							c12.3-6.2,16.1-15.8,13.8-30.9c-0.2-1.1-0.7-2.2,0.8-3.8c3.3,6.2,4,12.9,5.1,19.1c1.2,6.8,1.6,14,1.6,21
							C1247.1,415.6,1247.1,524.8,1247.1,633.9z"/>
						<path class="st8" d="M317.5,452c-1.4,5-0.4,7,5,4.5c4.8-2.3,10.1-2.9,15.2-2.8c6.2,0.1,11.5-2.1,17-4.1
							c3.7-1.3,14.7,3.6,15.6,7.3c0.5,2-1.1,2.7-2.5,3.5c-21.2,12.2-42.4,24.4-63.5,36.6c-22.2,12.8-44.3,25.5-66.5,38.3
							c-5.7,3.3-11.4,6.5-17.2,9.7c-1.3,0.7-2.8,1.8-4.3,0.3c-1.2-1.2-0.4-2.4-0.3-3.8c0.3-3.8,2.5-6.4,4.3-9.6
							c4.2-7.5,10.5-12,16.9-17.4c11.1-9.4,23.9-16.4,34.4-26.3c0.6-0.6,1.6-1.1,2.4-1.2c3.8-0.6,7.4-1.8,7.6-6.3
							c0.3-4.6-5.4-1.1-6.5-4.2c10.3-7.7,22-12.9,32.9-19.6C311,455,313.7,452.4,317.5,452z"/>
						<path class="st8" d="M1126.2,402.5c1.3,0.4,2.6,0.6,3.2,2.1c7.8,19.9,20.9,35.9,37.1,49.5c-2.2,3.8-1.7,6.6,2.7,8.3
							c1.4,0.6,2.8,1.4,2.8,3.3c-4-0.5-8-2.1-10.3-4.7c-4.3-5-7.9-2.9-11.8-0.5c-8,4.9-15.9,10.1-23.8,15.1
							C1126.2,451.2,1126.2,426.9,1126.2,402.5z"/>
						<path class="st8" d="M1886.6,756.8c-4.6,4.5-4.5,10.9-6.1,16.4c-5.6,19.1-5.3,19.1-25.3,19.4c-5.2,0.1-10.3,0.7-15.5,1.1
							c12.9-17.5,24.3-35.8,33.5-55.5c13.7,0.5,13.7,0.5,13.5,14.6C1886.8,754.1,1886.7,755.5,1886.6,756.8z"/>
						<path class="st8" d="M1174.7,583.2c-0.8,3.4,0.5,6.6,1.2,9.8c-15.9-9.1-31.7-18.2-47.7-27.2c-2.2-1.2-2.5-2.9-2.4-5.1
							c0.1-12.5,0.2-25,0.3-37.5c1.5,0.3,2.2,1.4,2.8,2.7c8.8,22.1,21.7,41,42.4,53.7c0.7,0.4,0.9,1.5,1.4,2.3
							C1173.3,582.4,1174,582.8,1174.7,583.2L1174.7,583.2z"/>
						<path class="st8" d="M1126.2,281.1c3.3,4.2,3.3,8.4,0,12.6C1125.4,289.4,1125.4,285.2,1126.2,281.1z"/>
						<path class="st8" d="M1836.2,993.3c5.5-6.4,11.5-12.2,17.9-17.7c0.6,1.7,1.9,3.3,0.7,5.1c-4.7,7.2-6.1,15.9-10.3,23.3
							c-1.5,2.6-3.5,6.7-6.9,5c-3.8-1.9-3-6.1-0.8-9.4C1838.5,997.2,1840.3,995.1,1836.2,993.3z"/>
						<path class="st8" d="M1829,999.9c0.6-1.3,1.7-2.2,3.1-2.6C1832,999.3,1831,1000.2,1829,999.9z"/>
						<path class="st8" d="M1871.2,958.7c0.5-0.5,1.1-1,1.6-1.5C1872.7,958.2,1872.2,958.7,1871.2,958.7z"/>
						<path class="st8" d="M608.7,797.8c0.9-1.7,1.8-3.5-0.4-4.7c-21.1-12.1-40.4-27.4-62.6-37.5c-10.6-4.8-18.6-13.2-28.6-18.9
							c-2.7-1.5-5.4-3.2-8.3-4.4c-11.3-5-19.8-14.4-31-19.6c-1.8-0.8-3.4-1.9-5.4-2.4c-6.9-1.8-13-4.4-18.3-9.8
							c-6.7-7-16.4-9.6-24.8-13.9c-13.7-6.9-25.3-16.7-37.5-25.7c-2.1-1.6-4.3-2.5-6.6-3.3c-5.3-1.8-10.2-3.8-13.2-9
							c-0.5-0.9-1.5-1.9-2.5-2.2c-16.4-5-28.2-17.4-42.4-26c-4.7-2.8-9.4-5.6-14.2-8c-6.8-3.3-11.7-8.6-15.9-14.5
							c-3.3-4.6-7.6-7-12.6-9.5c-9.4-4.7-20.9-6.9-25.9-18.2c-3.3-7.3-0.4-23.3,6.4-27.6c9.6-6.1,16.1-15.8,25.2-22
							c9.5-6.5,18-14.7,29.7-18.3c13.7-4.2,24.8-13.6,37-20.9c7.6-4.5,15.9-9.8,25.8-8c2.3,0.4,4.2-0.1,5.6-1.7
							c8.9-10,20.6-10.8,32.7-10.3c1.4,0,2.9,0.4,4.1,0c13-4.9,24.2,3.4,36.3,5.1c7.6,1.1,13,5.8,18,11.3c1.4,1.5,3.8,3.1,6.1,2.4
							c2.5-0.8,3.9,0.3,5.3,1.8c7.6,8.1,17.9,12.1,27.4,17.3c1.1,0.6,2.7,0.6,4,0.6c10.8-0.4,21.2,1.3,30.7,6.2
							c10.2,5.3,20.9,8.8,31.7,12.3c1.9,0.6,4.4,1.3,5.4,2.8c9.4,13.7,26,11.6,38.7,18.1c3.3,1.7,6.1,3.3,8.4,6.4
							c10.3,13.7,22.8,24.7,39.8,29.5c1.4,0.4,2.7,1.5,4,2.5c7.5,6.1,16.1,10,25.4,12.6c4.9,1.4,8.7,5,10.9,9
							c5.9,10.5,16,17,23.5,25.9c9,10.7,20.1,18.9,31.3,27c4.2,3,3.2,8.1,5.2,12.1c4.2,8.4,8.6,16,19.1,17.8
							c3.8,0.7,7.1,3.8,10.6,5.8c15.6,8.9,32.1,15.4,48.4,22.6c4.1,1.8,7,4.8,10.3,7.6c8.2,7,16.6,13.3,27.8,15.9
							c13.9,3.2,27.4,8.9,37.7,19c11.8,11.6,26.3,18.5,40.7,25.4c8.9,4.3,14.2,11.7,20.7,18c7.5,7.2,16.2,12.3,25.3,16.9
							c8.9,4.5,16,11,22.5,18.3c4,4.5,9.6,3.5,14.3,5.4c13.7,5.7,27.9,10.5,41.9,15.4c16.1,5.6,31.1,14.2,48.4,17.1
							c12.2,2.1,24.3,4.9,36.8,5c8.7,0.1,17.1-2.4,25.4-4.4c7.4-1.8,13.2,0.4,19.2,4c5.6,3.3,11,7.1,17.5,8.7
							c13.4,3.2,26-1.1,38.5-4.7c13.7-3.9,27.8-4.8,41.6-7.8c12.7-2.7,25.9-3.2,38.1-8.8c3.6-1.7,7.9-1.7,11.9-2.3
							c10.6-1.5,20.7-5,30.4-9.3c12.4-5.4,22.3-13.8,27.3-26.4c4.5-11.5,13.7-14.3,24-15.9c7.3-1.2,14.9-1.3,22.1-2.9
							c6.3-1.4,12.9-2.6,18-7c7.2-6.2,17.1-4.1,25-7.9c9.2-4.4,18.6-7.8,26.3-15.9c5.7-5.9,11.2-13.3,20-16.3
							c4.3-1.5,7.3-6,8.4-10.3c1.4-5,5.1-7,8.7-9.5c15.8-11.1,33.8-5.1,50.9-6.5c11.5-0.9,23.1,0.7,34.5-1.2
							c0.9-0.2,1.8-0.5,2.7-0.4c16.1,1.5,32.4,0,48.6,2c7.7,1,15.5,2.3,23.4,2.1c16.7-0.5,32.7,4.2,48.7,7.5
							c6.2,1.3,12.8,5.6,17.7,10.8c7.2,7.6,6.7,27.7,1.1,36.9c-3.4,5.6-8.6,10.5-9.1,17.9c-0.4,4.9-5.6,6.5-8.9,8.8
							c-10.6,7.7-16.2,18.8-22.5,29.5c-6.5,11-13,21.6-25.3,27.5c-5.2,2.5-8.5,8.2-12.2,12.5c-6.3,7.4-13.9,12.1-22.6,15.7
							c-10.9,4.5-20.1,12.2-31.5,16c-3.2,1.1-4.3,5.1-6.4,7.8c-4.8,6.4-10.4,11.3-18.7,13.5c-12.1,3.1-23.5,8.1-33.4,16.1
							c-2.6,2.1-6,3.3-9,4.9c-3.8,2-6.8,4.6-6.2,9.5c-31.7,15.1-64.9,26.3-98.4,36.4c-74,22.3-149.5,35.9-226.8,39.3
							c-72.2,3.2-143.7-2.2-214.4-18.1c-65.5-14.7-127.6-38.3-185.9-71.4c-66.6-37.9-132.8-76.5-199.2-114.9
							C656.6,825.9,632.7,811.8,608.7,797.8z"/>
						<path class="st8" d="M608.7,797.8c23.9,14,47.8,28,71.8,41.9c66.3,38.4,132.5,77,199.2,114.9c58.3,33.1,120.4,56.7,185.9,71.4
							c70.7,15.9,142.2,21.3,214.4,18.1c77.3-3.4,152.8-17,226.8-39.3c33.5-10.1,66.7-21.3,98.4-36.4c25.2-9.4,48.7-22.2,72.2-35.1
							c16.4-9,32.3-18.9,47-30.6c12.3-9.8,24.7-19.3,36.9-29.2c12.2-9.8,23.4-20.6,34.8-31.3c14.8-13.9,27.9-29.3,40.7-45
							c6.1,1.3,5.6,5.5,3.4,9.4c-4.8,8.6-8,17.9-12.4,26.6c-5.4,10.9-11.1,21.7-19.2,31c-1.7,2-2.4,4.3-3.5,6.5
							c-1.2,2.4-1.9,5.6-4.5,6.7c-8.5,3.8-11.9,12-17.2,18.6c-4.4,5.7-8.6,11.9-14.3,16.1c-8.6,6.4-16,14.1-23.4,21.5
							c-18.1,18.2-39.6,31.7-59.6,47.2c-10.4,8.1-23.8,11.9-34.1,19.8c-19.7,15-42.8,22.5-64.9,32.1c-29,12.6-58.8,22.9-89.2,31.5
							c-35.5,10.1-71.3,18.9-107.7,25.3c-18.2,3.2-36.6,5.4-54.9,7.7c-29.8,3.7-59.7,3.8-89.6,4.3c-22.5,0.4-44.9-0.2-67.2-1.9
							c-29.1-2.2-58.1-5.9-86.8-11.4c-35.7-6.8-70.8-15.9-105-28c-38-13.4-74.4-30.4-109.4-50.5c-31.5-18-63.1-35.9-94.6-54
							c-30.9-17.8-61.6-35.9-92.5-53.8c-32-18.5-64.1-36.9-96.2-55.4c-30.7-17.7-61.3-35.5-91.9-53.2
							c-27.5-15.9-55.1-31.8-82.6-47.7c-51.3-29.6-102.6-59.1-153.9-88.6c-18.6-10.7-36.4-22.9-55.8-32.3c-1.6-0.8-2.8-2.3-4.1-3.5
							c-4.6-4.1-4.2-7.9,1.6-10c8.8-3.2,16.2-8.8,23.9-13.8c2.1-1.4,3.7-3.3,6.4-3.7c3.9-0.6,5.2-3.1,4.7-6.8
							c43.3,24.9,86.7,49.8,130,74.8c77.2,44.5,154.3,89.1,231.5,133.6C605.4,796.4,607.1,797.1,608.7,797.8z"/>
						<path class="st8" d="M240.4,586c-7.7-2.3-13.5,1.4-19.9,5.2c-9.6,5.7-19.3,11.3-28.9,17c-3.6,2.2-7.9,2.9-11.9-0.5
							c-4.7-4-11.5-5-15.2-10.5c15-9.1,30.9-17,45.4-27c2.2-1.5,3.4-0.2,4.8,0.6C223.3,575.8,231.8,580.9,240.4,586z"/>
						<path class="st8" d="M187.6,555c8,4.6,16,9.1,24,13.7c-0.3,0.5-0.6,1.1-0.9,1.6c-9.1-2.3-15.8-9.3-24.1-13.3
							C187,556.3,187.3,555.6,187.6,555z"/>
						<path class="st8" d="M162.8,610.2c0.6,2.6,0.6,5.2-0.1,7.8C157.9,615.4,157.7,612.7,162.8,610.2z"/>
						<path class="st8" d="M1148.8,211.8c-1.8,0.4-3.5,0.7-5.9,1.2c22.6-16.6,40.5-19.8,62.4,0.4c15.6,14.4,23.1,32.5,22.5,53.9
							c-0.2,6.4-2.8,11.3-8.9,14.1c-1.8,0.8-3.4,1.6-4.1-1.3c-3.3-14.2-10.6-26.4-18.6-38.3c5.8-0.9,5.2-5.3,4.1-8.8
							c-6.2-19.5-19.8-27.7-39.4-25.1c-2.4,0.3-5.8,0.7-5.3,4.7c-1.4-0.2-2.8-0.3-4.2-0.5c-0.2-0.8-0.4-1.7-1.5-1.5
							C1149.5,210.6,1149.2,211.3,1148.8,211.8z"/>
						<path class="st8" d="M1215.8,315.4c7.1-3.5,13.9-7.4,19.4-13.3c1.1-1.2,2.3-3.6,4.3-2.2c1.5,1.1,1,3.5,0.5,5.1
							c-2,6.4-3.9,12.9-6.4,19.1c-8.1,20.4-8.2,20.3-7.9,38.4c-0.7-0.2-1.7-0.2-1.8-0.5c-4.1-9.8-12.2-10.9-21.3-9.8
							c-5.1,0.6-9.4-1-13.1-4.4c-4.4-4.1-10.1-6-15.1-9.1c-4.9-3-6.3-5.9-2.5-10.5c4.7,1.6,9.3,3.9,14.1,4.5
							C1198.5,334.6,1209.2,331.5,1215.8,315.4z"/>
						<path class="st8" d="M1155.6,212.5c-0.5-4.1,2.9-4.4,5.3-4.7c19.6-2.5,33.2,5.6,39.4,25.1c1.1,3.6,1.8,8-4.1,8.8
							c-7.4-8.2-14.6-16.7-24.3-22.5C1166.7,216.2,1161.2,214.2,1155.6,212.5z"/>
						<path class="st8" d="M1148.8,211.8c0.4-0.4,0.7-1.2,1.1-1.3c1-0.2,1.3,0.7,1.5,1.5C1150.5,211.9,1149.7,211.8,1148.8,211.8z"
							/>
						<path class="st8" d="M1171.9,465.7c0-1.9-1.3-2.8-2.8-3.3c-4.4-1.7-4.9-4.6-2.7-8.3c5.1,2.3,10.1,5.2,15.4,6.8
							c16.1,4.7,27-1,33.7-17.1c9.3-1.1,15.2-8.3,23.3-13.2c-1.3,7.9-4.7,14.5-7.5,21.2c-3.2,7.7-7.2,15-8.8,23.3
							c-0.5,2.8-1.8,3.7-4.1,2.2c-2-1.3-4-2.5-6.3-1.4c-8.8,4.3-16.7,2-24.4-2.8c-1.5-0.9-3.1-2-5.1-1.5c-0.4-0.2-0.8-0.3-1.3-0.3
							c-0.1-1.9-0.9-2.8-2.9-2.3C1176.5,467.5,1174.4,466.2,1171.9,465.7z"/>
						<path class="st8" d="M1178.5,469c2-0.5,2.8,0.4,2.9,2.3C1179.8,471.3,1178.9,470.5,1178.5,469z"/>
						<path class="st8" d="M1174.7,583.3c-0.7-0.5-1.4-0.9-2.1-1.4C1173.7,581.8,1174.4,582.3,1174.7,583.3z"/>
					</g>
					<path class="st8" d="M1126.2,143.7l121.4-61.3l125,58.8c-42.1,24.1-84.2,48.2-126.3,72.3C1206.3,190.3,1166.3,167,1126.2,143.7
						z"/>
				</g>
			</g>
		</g>
	</g>
</g>
<g id="Layer_2">
</g>
</svg>
