<?xml version="1.0" encoding="utf-8"?>
<!-- Generator: Adobe Illustrator 22.0.1, SVG Export Plug-In . SVG Version: 6.00 Build 0)  -->
<svg version="1.1" id="Layer_1" xmlns="http://www.w3.org/2000/svg" xmlns:xlink="http://www.w3.org/1999/xlink" x="0px" y="0px"
	 viewBox="0 0 2560 2560" style="enable-background:new 0 0 2560 2560;" xml:space="preserve">
<style type="text/css">
	.st0{fill:url(#SVGID_1_);}
</style>
<linearGradient id="SVGID_1_" gradientUnits="userSpaceOnUse" x1="1282" y1="2523.6877" x2="1282" y2="35.8824">
	<stop  offset="0" style="stop-color:#CCCCCC"/>
	<stop  offset="1" style="stop-color:#FFFFFF"/>
</linearGradient>
<path class="st0" d="M1613.5,384.2c-161.3,0-310.9,50.8-433.6,137.4l-0.1,0.1c-0.7,0.4-1.4,0.9-2.1,1.4V35.9L858.9,354.8v471.6
	l-347.2,347.2V702l-309.5,309.5c-24.9,264.3,23.8,534.3,146.2,776.3l1-1c189.1,367.3,533.5,642.1,946,736.9l283.5-283.5
	c-448.9-13.9-830.8-297.5-989.1-693.8l279.9-280c60.8,355.6,371.2,627.1,743.9,627.1c206.4,0,393.7-83.3,530.1-218.1l5.7-5.7
	l0.7-0.8c134.8-136.3,218.1-323.7,218.1-530.1C2368.2,722.8,2029.6,384.2,1613.5,384.2z M1613.5,1574.7
	c-240.4,0-435.8-195.5-435.8-435.8c0-240.3,195.4-435.8,435.8-435.8c240.3,0,435.8,195.5,435.8,435.8
	C2049.3,1379.2,1853.8,1574.7,1613.5,1574.7z"/>
</svg>
