<?xml version="1.0" encoding="utf-8"?>
<!-- Generator: Adobe Illustrator 22.0.1, SVG Export Plug-In . SVG Version: 6.00 Build 0)  -->
<svg version="1.1" id="Layer_1" xmlns="http://www.w3.org/2000/svg" xmlns:xlink="http://www.w3.org/1999/xlink" x="0px" y="0px"
	 viewBox="0 0 2560 1440" style="enable-background:new 0 0 2560 1440;" xml:space="preserve">
<style type="text/css">
	.st0{opacity:0.1;fill:none;stroke:#FFFFFF;stroke-width:3.5208;stroke-miterlimit:10;}
</style>
<g>
	<path class="st0" d="M828.4,1264.9l6.3,26.2c0.7,2.9-2,5.5-4.9,4.6l-25-7.9c-2.8-0.9-3.6-4.4-1.5-6.4l18.7-18.4
		C824.1,1260.9,827.7,1261.9,828.4,1264.9z"/>
	<path class="st0" d="M684.9,1155.5l-25.3,9.4c-2.8,1-5.7-1.4-5.1-4.3l4.8-25.8c0.5-2.9,3.9-4.1,6.2-2.3l20.5,16.4
		C688.3,1150.7,687.7,1154.4,684.9,1155.5z"/>
	<path class="st0" d="M617.5,958.7L600.2,938c-1.9-2.3-0.6-5.8,2.4-6.3l25.9-4c2.9-0.4,5.2,2.3,4.2,5.1l-8.6,24.8
		C623.1,960.3,619.4,961,617.5,958.7z"/>
	<path class="st0" d="M196.5,1103.4l-25.1-9.9c-2.8-1.1-3.3-4.8-0.9-6.6l20.8-16c2.3-1.8,5.7-0.4,6.1,2.4l4.3,25.9
		C202.2,1102.1,199.2,1104.5,196.5,1103.4z"/>
	<path class="st0" d="M209.1,1332.1l1.6-26.9c0.2-3,3.5-4.6,6-2.9l21.6,14.8c2.4,1.6,2.2,5.2-0.4,6.6l-23.3,12.1
		C212.1,1337.1,208.9,1335.1,209.1,1332.1z"/>
	<path class="st0" d="M553.6,1312.8l-25.3-9.3c-2.8-1-3.4-4.7-1.1-6.6l20.4-16.5c2.3-1.8,5.6-0.6,6.2,2.3l4.9,25.8
		C559.3,1311.4,556.4,1313.8,553.6,1312.8z"/>
	<path class="st0" d="M407.8,1048.1l5.1-26.5c0.6-2.9,4.1-4.1,6.3-2.1l19.5,17.5c2.2,1.9,1.5,5.5-1.2,6.5l-24.6,9
		C410.1,1053.4,407.2,1051,407.8,1048.1z"/>
	<path class="st0" d="M2280.9,1000.2l17.6,20.5c1.9,2.3,0.7,5.8-2.3,6.3l-25.8,4.5c-2.9,0.5-5.2-2.2-4.3-5l8.2-24.9
		C2275.2,998.6,2278.9,997.9,2280.9,1000.2z"/>
	<path class="st0" d="M2147.6,1119.7l26.3,5.9c2.9,0.6,4,4.2,1.9,6.4l-18.1,19c-2,2.1-5.5,1.3-6.4-1.4l-8.3-24.9
		C2142.1,1121.8,2144.6,1119,2147.6,1119.7z"/>
	<path class="st0" d="M2114.3,922.9l10.5,24.9c1.2,2.8-1.1,5.7-4.1,5.3l-26-3.7c-2.9-0.4-4.3-3.7-2.6-6.1l15.5-21.2
		C2109.5,919.7,2113.2,920.1,2114.3,922.9z"/>
	<path class="st0" d="M1970.1,1085.9l6.3,26.2c0.7,2.9-2,5.5-4.9,4.6l-25-7.9c-2.8-0.9-3.6-4.4-1.5-6.4l18.7-18.4
		C1965.8,1082,1969.4,1083,1970.1,1085.9z"/>
	<path class="st0" d="M2310.1,732.8l-11.7,24.3c-1.3,2.7-5,2.9-6.7,0.5l-14.5-21.9c-1.6-2.4,0-5.7,2.8-5.9l26.1-2.5
		C2309.2,727.1,2311.4,730.1,2310.1,732.8z"/>
	<path class="st0" d="M1991.1,688.4l17.4,20.6c1.9,2.3,0.6,5.8-2.3,6.3l-25.9,4.2c-2.9,0.5-5.2-2.3-4.3-5l8.4-24.8
		C1985.5,686.9,1989.2,686.2,1991.1,688.4z"/>
	<path class="st0" d="M1826.6,976.5l-25.3,9.4c-2.8,1-5.7-1.4-5.1-4.3l4.8-25.8c0.5-2.9,3.9-4.1,6.2-2.3l20.5,16.4
		C1830,971.8,1829.4,975.5,1826.6,976.5z"/>
	<path class="st0" d="M1759.2,779.7L1742,759c-1.9-2.3-0.6-5.8,2.4-6.3l25.9-4c2.9-0.4,5.2,2.3,4.2,5.1l-8.6,24.8
		C1764.8,781.4,1761.2,782,1759.2,779.7z"/>
	<path class="st0" d="M2291.6,1528.2l17.6,20.5c1.9,2.3,0.7,5.8-2.3,6.3l-25.8,4.5c-2.9,0.5-5.2-2.2-4.3-5l8.2-24.9
		C2286,1526.7,2289.6,1526,2291.6,1528.2z"/>
	<path class="st0" d="M2158.3,1647.7l26.3,5.9c2.9,0.6,4,4.2,2,6.4l-18.1,19c-2,2.1-5.5,1.3-6.4-1.4l-8.3-24.9
		C2152.9,1649.8,2155.4,1647,2158.3,1647.7z"/>
	<path class="st0" d="M2125.1,1450.9l10.5,24.9c1.2,2.8-1.1,5.7-4.1,5.3l-26-3.7c-2.9-0.4-4.3-3.7-2.6-6.1l15.5-21.2
		C2120.2,1447.8,2123.9,1448.2,2125.1,1450.9z"/>
	<path class="st0" d="M1980.8,1613.9l6.3,26.2c0.7,2.9-2,5.5-4.9,4.6l-25-7.9c-2.8-0.9-3.6-4.4-1.5-6.4l18.7-18.4
		C1976.5,1610,1980.1,1611,1980.8,1613.9z"/>
	<path class="st0" d="M2194.2,1272.5l17.4,20.6c1.9,2.3,0.6,5.8-2.3,6.3l-25.9,4.2c-2.9,0.5-5.2-2.3-4.3-5l8.4-24.8
		C2188.5,1270.9,2192.2,1270.2,2194.2,1272.5z"/>
	<path class="st0" d="M1837.4,1504.6l-25.3,9.4c-2.8,1-5.7-1.4-5.1-4.3l4.8-25.8c0.5-2.9,3.9-4.1,6.2-2.3l20.5,16.4
		C1840.8,1499.8,1840.2,1503.5,1837.4,1504.6z"/>
	<path class="st0" d="M1770,1307.8l-17.3-20.7c-1.9-2.3-0.6-5.8,2.4-6.3l25.9-4c2.9-0.4,5.2,2.3,4.2,5.1l-8.6,24.8
		C1775.6,1309.4,1771.9,1310.1,1770,1307.8z"/>
	<g>
		<path class="st0" d="M3345.6,1302.2l17.6,20.5c1.9,2.3,0.7,5.8-2.3,6.3l-25.8,4.5c-2.9,0.5-5.2-2.2-4.3-5l8.2-24.9
			C3340,1300.7,3343.6,1300,3345.6,1302.2z"/>
		<path class="st0" d="M3212.3,1421.7l26.3,5.9c2.9,0.6,4,4.2,2,6.4l-18.1,19c-2,2.1-5.5,1.3-6.4-1.4l-8.3-24.9
			C3206.9,1423.8,3209.4,1421,3212.3,1421.7z"/>
		<path class="st0" d="M3179.1,1224.9l10.5,24.9c1.2,2.8-1.1,5.7-4.1,5.3l-26-3.7c-2.9-0.4-4.3-3.7-2.6-6.1l15.5-21.2
			C3174.2,1221.8,3177.9,1222.2,3179.1,1224.9z"/>
		<path class="st0" d="M3034.8,1387.9l6.3,26.2c0.7,2.9-2,5.5-4.9,4.6l-25-7.9c-2.8-0.9-3.6-4.4-1.5-6.4l18.7-18.4
			C3030.5,1384,3034.1,1385,3034.8,1387.9z"/>
		<path class="st0" d="M3248.2,1046.5l17.4,20.6c1.9,2.3,0.6,5.8-2.3,6.3l-25.9,4.2c-2.9,0.5-5.2-2.3-4.3-5l8.4-24.8
			C3242.5,1044.9,3246.2,1044.2,3248.2,1046.5z"/>
		<path class="st0" d="M2891.4,1278.6l-25.3,9.4c-2.8,1-5.7-1.4-5.1-4.3l4.8-25.8c0.5-2.9,3.9-4.1,6.2-2.3l20.5,16.4
			C2894.8,1273.8,2894.2,1277.5,2891.4,1278.6z"/>
		<path class="st0" d="M2824,1081.8l-17.3-20.7c-1.9-2.3-0.6-5.8,2.4-6.3l25.9-4c2.9-0.4,5.2,2.3,4.2,5.1l-8.6,24.8
			C2829.6,1083.4,2825.9,1084.1,2824,1081.8z"/>
		<path class="st0" d="M2402.9,1226.5l-25.1-9.9c-2.8-1.1-3.3-4.8-0.9-6.6l20.8-16c2.3-1.8,5.7-0.4,6.1,2.4l4.3,25.9
			C2408.6,1225.2,2405.7,1227.6,2402.9,1226.5z"/>
		<path class="st0" d="M2415.6,1455.2l1.6-26.9c0.2-3,3.5-4.6,6-2.9l21.6,14.8c2.4,1.6,2.2,5.2-0.4,6.6l-23.3,12.1
			C2418.5,1460.2,2415.4,1458.2,2415.6,1455.2z"/>
		<path class="st0" d="M2760.1,1435.9l-25.3-9.3c-2.8-1-3.4-4.7-1.1-6.6l20.4-16.5c2.3-1.8,5.6-0.6,6.2,2.3l4.9,25.8
			C2765.8,1434.5,2762.9,1436.9,2760.1,1435.9z"/>
		<path class="st0" d="M2626.3,1043.2l5.1-26.5c0.6-2.9,4.1-4.1,6.3-2.1l19.5,17.5c2.2,1.9,1.5,5.5-1.2,6.5l-24.6,9
			C2628.5,1048.5,2625.7,1046.1,2626.3,1043.2z"/>
	</g>
	<g>
		<path class="st0" d="M3480.8,712.5l17.6,20.5c1.9,2.3,0.7,5.8-2.3,6.3l-25.8,4.5c-2.9,0.5-5.2-2.2-4.3-5l8.2-24.9
			C3475.2,710.9,3478.9,710.2,3480.8,712.5z"/>
		<path class="st0" d="M3347.5,831.9l26.3,5.9c2.9,0.6,4,4.2,2,6.4l-18.1,19c-2,2.1-5.5,1.3-6.4-1.4l-8.3-24.9
			C3342.1,834.1,3344.6,831.3,3347.5,831.9z"/>
		<path class="st0" d="M3314.3,635.2l10.5,24.9c1.2,2.8-1.1,5.7-4.1,5.3l-26-3.7c-2.9-0.4-4.3-3.7-2.6-6.1l15.5-21.2
			C3309.4,632,3313.2,632.4,3314.3,635.2z"/>
		<path class="st0" d="M3170.1,798.2l6.3,26.2c0.7,2.9-2,5.5-4.9,4.6l-25-7.9c-2.8-0.9-3.6-4.4-1.5-6.4l18.7-18.4
			C3165.8,794.2,3169.4,795.3,3170.1,798.2z"/>
		<path class="st0" d="M3383.4,456.7l17.4,20.6c1.9,2.3,0.6,5.8-2.3,6.3l-25.9,4.2c-2.9,0.5-5.2-2.3-4.3-5l8.4-24.8
			C3377.8,455.1,3381.5,454.4,3383.4,456.7z"/>
		<path class="st0" d="M3026.6,688.8l-25.3,9.4c-2.8,1-5.7-1.4-5.1-4.3l4.8-25.8c0.5-2.9,3.9-4.1,6.2-2.3l20.5,16.4
			C3030,684.1,3029.4,687.8,3026.6,688.8z"/>
		<path class="st0" d="M2959.2,492l-17.3-20.7c-1.9-2.3-0.6-5.8,2.4-6.3l25.9-4c2.9-0.4,5.2,2.3,4.2,5.1l-8.6,24.8
			C2964.8,493.6,2961.1,494.3,2959.2,492z"/>
		<path class="st0" d="M2538.2,636.7l-25.1-9.9c-2.8-1.1-3.3-4.8-0.9-6.6l20.8-16c2.3-1.8,5.7-0.4,6.1,2.4l4.3,25.9
			C2543.9,635.5,2541,637.8,2538.2,636.7z"/>
		<path class="st0" d="M2550.8,865.4l1.6-26.9c0.2-3,3.5-4.6,6-2.9l21.6,14.8c2.4,1.6,2.2,5.2-0.4,6.6l-23.3,12.1
			C2553.8,870.5,2550.6,868.4,2550.8,865.4z"/>
		<path class="st0" d="M2895.4,846.1l-25.3-9.3c-2.8-1-3.4-4.7-1.1-6.6l20.4-16.5c2.3-1.8,5.6-0.6,6.2,2.3l4.9,25.8
			C2901,844.7,2898.2,847.1,2895.4,846.1z"/>
		<path class="st0" d="M2761.5,453.4l5.1-26.5c0.6-2.9,4.1-4.1,6.3-2.1l19.5,17.5c2.2,1.9,1.5,5.5-1.2,6.5l-24.6,9
			C2763.8,458.8,2760.9,456.3,2761.5,453.4z"/>
	</g>
	<path class="st0" d="M656.2,514.4l-25.1-9.9c-2.8-1.1-3.3-4.8-0.9-6.6l20.8-16c2.3-1.8,5.7-0.4,6.1,2.4l4.3,25.9
		C661.9,513.2,659,515.5,656.2,514.4z"/>
	<path class="st0" d="M668.8,743.2l1.6-26.9c0.2-3,3.5-4.6,6-2.9l21.6,14.8c2.4,1.6,2.2,5.2-0.4,6.6l-23.3,12.1
		C671.8,748.2,668.7,746.1,668.8,743.2z"/>
	<path class="st0" d="M2638.9,366.2l17.6,20.5c1.9,2.3,0.7,5.8-2.3,6.3l-25.8,4.5c-2.9,0.5-5.2-2.2-4.3-5l8.2-24.9
		C2633.2,364.6,2636.9,363.9,2638.9,366.2z"/>
	<path class="st0" d="M2505.6,485.7l26.3,5.9c2.9,0.6,4,4.2,1.9,6.4l-18.1,19c-2,2.1-5.5,1.3-6.4-1.4l-8.3-24.9
		C2500.1,487.8,2502.6,485,2505.6,485.7z"/>
	<path class="st0" d="M2472.3,288.9l10.5,24.9c1.2,2.8-1.1,5.7-4.1,5.3l-26-3.7c-2.9-0.4-4.3-3.7-2.6-6.1l15.5-21.2
		C2467.5,285.7,2471.2,286.1,2472.3,288.9z"/>
	<path class="st0" d="M2328.1,451.9l6.3,26.2c0.7,2.9-2,5.5-4.9,4.6l-25-7.9c-2.8-0.9-3.6-4.4-1.5-6.4l18.7-18.4
		C2323.8,448,2327.4,449,2328.1,451.9z"/>
	<path class="st0" d="M2541.4,110.4l17.4,20.6c1.9,2.3,0.6,5.8-2.3,6.3l-25.9,4.2c-2.9,0.5-5.2-2.3-4.3-5l8.4-24.8
		C2535.8,108.9,2539.5,108.2,2541.4,110.4z"/>
	<path class="st0" d="M2184.6,342.5l-25.3,9.4c-2.8,1-5.7-1.4-5.1-4.3l4.8-25.8c0.5-2.9,3.9-4.1,6.2-2.3l20.5,16.4
		C2188,337.8,2187.4,341.5,2184.6,342.5z"/>
	<path class="st0" d="M2117.2,145.7L2100,125c-1.9-2.3-0.6-5.8,2.4-6.3l25.9-4c2.9-0.4,5.2,2.3,4.2,5.1l-8.6,24.8
		C2122.8,147.4,2119.2,148,2117.2,145.7z"/>
	<path class="st0" d="M1708.8,519.2l1.6-26.9c0.2-3,3.5-4.6,6-2.9l21.6,14.8c2.4,1.6,2.2,5.2-0.4,6.6l-23.3,12.1
		C1711.8,524.2,1708.7,522.1,1708.8,519.2z"/>
	<path class="st0" d="M2053.4,499.8l-25.3-9.3c-2.8-1-3.4-4.7-1.1-6.6l20.4-16.5c2.3-1.8,5.6-0.6,6.2,2.3l4.9,25.8
		C2059,498.4,2056.2,500.9,2053.4,499.8z"/>
	<path class="st0" d="M1919.5,107.1l5.1-26.5c0.6-2.9,4.1-4.1,6.3-2.1l19.5,17.5c2.2,1.9,1.5,5.5-1.2,6.5l-24.6,9
		C1921.8,112.5,1919,110.1,1919.5,107.1z"/>
	<path class="st0" d="M664.2-67.6l-25.1-9.9c-2.8-1.1-3.3-4.8-0.9-6.6l20.8-16c2.3-1.8,5.7-0.4,6.1,2.4l4.3,25.9
		C669.9-68.8,667-66.5,664.2-67.6z"/>
	<path class="st0" d="M708.6,164.8l1.6-26.9c0.2-3,3.5-4.6,6-2.9l21.6,14.8c2.4,1.6,2.2,5.2-0.4,6.6l-23.3,12.1
		C711.6,169.8,708.4,167.8,708.6,164.8z"/>
	<path class="st0" d="M887.5-250.9l5.1-26.5c0.6-2.9,4.1-4.1,6.3-2.1l19.5,17.5c2.2,1.9,1.5,5.5-1.2,6.5l-24.6,9
		C889.8-245.5,887-247.9,887.5-250.9z"/>
	<g>
		<path class="st0" d="M571.9,248.8l17.6,20.5c1.9,2.3,0.7,5.8-2.3,6.3l-25.8,4.5c-2.9,0.5-5.2-2.2-4.3-5l8.2-24.9
			C566.3,247.2,569.9,246.5,571.9,248.8z"/>
		<path class="st0" d="M438.6,368.2l26.3,5.9c2.9,0.6,4,4.2,2,6.4l-18.1,19c-2,2.1-5.5,1.3-6.4-1.4l-8.3-24.9
			C433.2,370.4,435.7,367.6,438.6,368.2z"/>
		<path class="st0" d="M405.4,171.5l10.5,24.9c1.2,2.8-1.1,5.7-4.1,5.3l-26-3.7c-2.9-0.4-4.3-3.7-2.6-6.1l15.5-21.2
			C400.5,168.3,404.2,168.7,405.4,171.5z"/>
		<path class="st0" d="M261.1,334.5l6.3,26.2c0.7,2.9-2,5.5-4.9,4.6l-25-7.9c-2.8-0.9-3.6-4.4-1.5-6.4l18.7-18.4
			C256.8,330.5,260.4,331.6,261.1,334.5z"/>
		<path class="st0" d="M474.4-7l17.4,20.6c1.9,2.3,0.6,5.8-2.3,6.3l-25.9,4.2c-2.9,0.5-5.2-2.3-4.3-5l8.4-24.8
			C468.8-8.5,472.5-9.2,474.4-7z"/>
		<path class="st0" d="M117.7,225.1l-25.3,9.4c-2.8,1-5.7-1.4-5.1-4.3l4.8-25.8c0.5-2.9,3.9-4.1,6.2-2.3l20.5,16.4
			C121.1,220.4,120.5,224.1,117.7,225.1z"/>
		<path class="st0" d="M50.3,28.3L33,7.6c-1.9-2.3-0.6-5.8,2.4-6.3l25.9-4c2.9-0.4,5.2,2.3,4.2,5.1l-8.6,24.8
			C55.9,30,52.2,30.6,50.3,28.3z"/>
		<path class="st0" d="M-370.8,173l-25.1-9.9c-2.8-1.1-3.3-4.8-0.9-6.6l20.8-16c2.3-1.8,5.7-0.4,6.1,2.4l4.3,25.9
			C-365.1,171.8-368,174.1-370.8,173z"/>
		<path class="st0" d="M-358.1,401.8l1.6-26.9c0.2-3,3.5-4.6,6-2.9l21.6,14.8c2.4,1.6,2.2,5.2-0.4,6.6l-23.3,12.1
			C-355.2,406.8-358.3,404.7-358.1,401.8z"/>
		<path class="st0" d="M-13.6,382.4l-25.3-9.3c-2.8-1-3.4-4.7-1.1-6.6l20.4-16.5c2.3-1.8,5.6-0.6,6.2,2.3l4.9,25.8
			C-7.9,381-10.8,383.5-13.6,382.4z"/>
		<path class="st0" d="M-147.4-10.3l5.1-26.5c0.6-2.9,4.1-4.1,6.3-2.1l19.5,17.5c2.2,1.9,1.5,5.5-1.2,6.5l-24.6,9
			C-145.2-4.9-148-7.3-147.4-10.3z"/>
	</g>
	<g>
		<path class="st0" d="M455.7,720l17.6,20.5c1.9,2.3,0.7,5.8-2.3,6.3l-25.8,4.5c-2.9,0.5-5.2-2.2-4.3-5l8.2-24.9
			C450.1,718.5,453.8,717.8,455.7,720z"/>
		<path class="st0" d="M322.4,839.5l26.3,5.9c2.9,0.6,4,4.2,2,6.4l-18.1,19c-2,2.1-5.5,1.3-6.4-1.4l-8.3-24.9
			C317,841.6,319.5,838.9,322.4,839.5z"/>
		<path class="st0" d="M289.2,642.8l10.5,24.9c1.2,2.8-1.1,5.7-4.1,5.3l-26-3.7c-2.9-0.4-4.3-3.7-2.6-6.1l15.5-21.2
			C284.3,639.6,288,640,289.2,642.8z"/>
		<path class="st0" d="M145,805.8l6.3,26.2c0.7,2.9-2,5.5-4.9,4.6l-25-7.9c-2.8-0.9-3.6-4.4-1.5-6.4l18.7-18.4
			C140.7,801.8,144.3,802.9,145,805.8z"/>
		<path class="st0" d="M358.3,464.3l17.4,20.6c1.9,2.3,0.6,5.8-2.3,6.3l-25.9,4.2c-2.9,0.5-5.2-2.3-4.3-5l8.4-24.8
			C352.7,462.7,356.3,462,358.3,464.3z"/>
		<path class="st0" d="M1.5,696.4l-25.3,9.4c-2.8,1-5.7-1.4-5.1-4.3l4.8-25.8c0.5-2.9,3.9-4.1,6.2-2.3l20.5,16.4
			C4.9,691.7,4.3,695.3,1.5,696.4z"/>
		<path class="st0" d="M-65.9,499.6l-17.3-20.7c-1.9-2.3-0.6-5.8,2.4-6.3l25.9-4c2.9-0.4,5.2,2.3,4.2,5.1l-8.6,24.8
			C-60.3,501.2-64,501.9-65.9,499.6z"/>
		<path class="st0" d="M-486.9,644.3l-25.1-9.9c-2.8-1.1-3.3-4.8-0.9-6.6l20.8-16c2.3-1.8,5.7-0.4,6.1,2.4l4.3,25.9
			C-481.2,643.1-484.2,645.4-486.9,644.3z"/>
		<path class="st0" d="M-474.3,873l1.6-26.9c0.2-3,3.5-4.6,6-2.9L-445,858c2.4,1.6,2.2,5.2-0.4,6.6l-23.3,12.1
			C-471.3,878-474.5,876-474.3,873z"/>
		<path class="st0" d="M-129.8,853.7l-25.3-9.3c-2.8-1-3.4-4.7-1.1-6.6l20.4-16.5c2.3-1.8,5.6-0.6,6.2,2.3l4.9,25.8
			C-124.1,852.3-127,854.7-129.8,853.7z"/>
		<path class="st0" d="M-263.6,461l5.1-26.5c0.6-2.9,4.1-4.1,6.3-2.1l19.5,17.5c2.2,1.9,1.5,5.5-1.2,6.5l-24.6,9
			C-261.3,466.4-264.2,463.9-263.6,461z"/>
	</g>
	<path class="st0" d="M1744.9,1131.8l-25.3-9.3c-2.8-1-3.4-4.7-1.1-6.6l20.4-16.5c2.3-1.8,5.6-0.6,6.2,2.3l4.9,25.8
		C1750.6,1130.4,1747.7,1132.9,1744.9,1131.8z"/>
	<path class="st0" d="M1755.6,1659.9l-25.3-9.3c-2.8-1-3.4-4.7-1.1-6.6l20.4-16.5c2.3-1.8,5.6-0.6,6.2,2.3l4.9,25.8
		C1761.3,1658.5,1758.4,1660.9,1755.6,1659.9z"/>
	<path class="st0" d="M1745.7,288.4l-25.1-9.9c-2.8-1.1-3.3-4.8-0.9-6.6l20.8-16c2.3-1.8,5.7-0.4,6.1,2.4l4.3,25.9
		C1751.4,287.2,1748.5,289.5,1745.7,288.4z"/>
	<path class="st0" d="M776.6,339.8l1.6-26.9c0.2-3,3.5-4.6,6-2.9l21.6,14.8c2.4,1.6,2.2,5.2-0.4,6.6l-23.3,12.1
		C779.6,344.8,776.4,342.8,776.6,339.8z"/>
</g>
<path class="st0" d="M1558.1,174.8l-25.1-9.9c-2.8-1.1-3.3-4.8-0.9-6.6l20.8-16c2.3-1.8,5.7-0.4,6.1,2.4l4.3,25.9
	C1563.8,173.5,1560.8,175.9,1558.1,174.8z"/>
</svg>
