<?xml version="1.0" encoding="utf-8"?>
<!-- Generator: Adobe Illustrator 22.0.1, SVG Export Plug-In . SVG Version: 6.00 Build 0)  -->
<svg version="1.1" id="Layer_1" xmlns="http://www.w3.org/2000/svg" xmlns:xlink="http://www.w3.org/1999/xlink" x="0px" y="0px"
	 viewBox="0 0 2560 1440" style="enable-background:new 0 0 2560 1440;" xml:space="preserve">
<style type="text/css">
	.st0{stroke:#FFFFFF;stroke-miterlimit:10;}
	.st1{opacity:0.1;fill:none;stroke:#FFFFFF;stroke-width:2.8591;stroke-miterlimit:10;enable-background:new    ;}
	.st2{opacity:0.1;fill:none;stroke:#FFFFFF;stroke-width:3.5208;stroke-miterlimit:10;enable-background:new    ;}
</style>
<rect x="-3701.8" y="2343.1" class="st0" width="2764.1" height="1609.8"/>
<rect x="-85.5" y="-125.6" class="st0" width="2764.1" height="1609.8"/>
<rect x="-25.5" y="28.1" class="st0" width="2764.1" height="1609.8"/>
<path class="st1" d="M1068.2,1032.4l14.3,16.6c1.6,1.8,0.6,4.7-1.8,5.1l-21,3.6c-2.3,0.4-4.2-1.8-3.5-4.1l6.7-20.2
	C1063.7,1031.1,1066.6,1030.5,1068.2,1032.4z"/>
<path class="st2" d="M909.6,1282.6l26.3,5.9c2.9,0.6,4,4.2,2,6.4l-18.1,19c-2,2.1-5.5,1.3-6.4-1.4l-8.3-24.9
	C904.2,1284.7,906.7,1282,909.6,1282.6z"/>
<path class="st2" d="M945.4,907.4l17.4,20.6c1.9,2.3,0.6,5.8-2.3,6.3l-25.9,4.2c-2.9,0.5-5.2-2.3-4.3-5l8.4-24.8
	C939.8,905.8,943.5,905.1,945.4,907.4z"/>
<path class="st1" d="M1290.7,709l-20.4-8.1c-2.3-0.9-2.7-3.9-0.8-5.4l16.9-13c1.9-1.4,4.6-0.4,5,2l3.5,21
	C1295.4,708,1293,709.9,1290.7,709z"/>
<path class="st1" d="M1210.1,907l1.3-21.9c0.1-2.4,2.9-3.8,4.9-2.4l17.6,12.1c1.9,1.3,1.8,4.3-0.3,5.3l-18.9,9.8
	C1212.5,911.1,1210,909.4,1210.1,907z"/>
<path class="st2" d="M1599.2,1117.8l-25.3-9.3c-2.8-1-3.4-4.7-1.1-6.6l20.4-16.5c2.3-1.8,5.6-0.6,6.2,2.3l4.9,25.8
	C1604.8,1116.4,1602,1118.9,1599.2,1117.8z"/>
<path class="st1" d="M1461,618.8l4.1-21.5c0.5-2.4,3.3-3.4,5.1-1.7l15.9,14.2c1.8,1.6,1.2,4.4-1,5.3l-20,7.3
	C1462.8,623.2,1460.5,621.2,1461,618.8z"/>
<path class="st1" d="M1208.6,1150.1l-20.4-8.1c-2.3-0.9-2.7-3.9-0.8-5.4l16.9-13c1.9-1.4,4.6-0.4,5,2l3.5,21
	C1213.2,1149.1,1210.8,1151,1208.6,1150.1z"/>
<path class="st1" d="M1218.8,1335.8l1.3-21.9c0.1-2.4,2.9-3.8,4.9-2.4l17.6,12.1c1.9,1.3,1.8,4.3-0.3,5.3l-18.9,9.8
	C1221.2,1339.9,1218.7,1338.2,1218.8,1335.8z"/>
<path class="st2" d="M1609.9,1645.9l-25.3-9.3c-2.8-1-3.4-4.7-1.1-6.6l20.4-16.5c2.3-1.8,5.6-0.6,6.2,2.3l4.9,25.8
	C1615.5,1644.5,1612.7,1646.9,1609.9,1645.9z"/>
<path class="st1" d="M1389.9,1001.2l4.1-21.5c0.5-2.4,3.3-3.4,5.1-1.7l15.9,14.2c1.8,1.6,1.2,4.4-1,5.3l-20,7.3
	C1391.8,1005.6,1389.5,1003.6,1389.9,1001.2z"/>
<path class="st1" d="M1444.5,400.2l14.3,16.6c1.6,1.8,0.6,4.7-1.8,5.1l-21,3.6c-2.3,0.4-4.2-1.8-3.5-4.1l6.7-20.2
	C1439.9,398.9,1442.9,398.3,1444.5,400.2z"/>
<path class="st1" d="M1276.3,387.1l8.5,20.2c0.9,2.2-0.9,4.6-3.3,4.3l-21.1-3c-2.3-0.3-3.5-3-2.1-4.9l12.6-17.2
	C1272.3,384.5,1275.4,384.8,1276.3,387.1z"/>
<path class="st1" d="M1159.2,519.4l5.1,21.3c0.6,2.4-1.7,4.4-4,3.7L1140,538c-2.2-0.7-2.9-3.6-1.2-5.2l15.2-14.9
	C1155.7,516.2,1158.6,517.1,1159.2,519.4z"/>
<path class="st1" d="M1332.4,242.2l14.2,16.7c1.6,1.9,0.5,4.7-1.9,5.1l-21,3.4c-2.3,0.4-4.2-1.9-3.5-4.1l6.9-20.2
	C1327.9,240.9,1330.8,240.3,1332.4,242.2z"/>
<path class="st1" d="M991.7,502l-20.5,7.6c-2.3,0.8-4.6-1.1-4.2-3.5l3.9-20.9c0.4-2.3,3.2-3.3,5-1.9l16.6,13.3
	C994.5,498.2,994,501.2,991.7,502z"/>
<path class="st2" d="M981,353.7L963.7,333c-1.9-2.3-0.6-5.8,2.4-6.3l25.9-4c2.9-0.4,5.2,2.3,4.2,5.1l-8.6,24.8
	C986.6,355.4,982.9,356,981,353.7z"/>
<path class="st2" d="M917.2,707.8l-25.3-9.3c-2.8-1-3.4-4.7-1.1-6.6l20.4-16.5c2.3-1.8,5.6-0.6,6.2,2.3l4.9,25.8
	C922.8,706.4,920,708.9,917.2,707.8z"/>
<path class="st2" d="M1600,274.4l-25.1-9.9c-2.8-1.1-3.3-4.8-0.9-6.6l20.8-16c2.3-1.8,5.7-0.4,6.1,2.4l4.3,25.9
	C1605.7,273.2,1602.8,275.5,1600,274.4z"/>
<path class="st1" d="M1418-22.8l14.3,16.6c1.6,1.8,0.6,4.7-1.8,5.1l-21,3.6c-2.3,0.4-4.2-1.8-3.5-4.1l6.7-20.2
	C1413.5-24,1416.4-24.6,1418-22.8z"/>
<path class="st1" d="M1309.8,74.2l21.4,4.8c2.4,0.5,3.3,3.4,1.6,5.2l-14.7,15.4c-1.6,1.7-4.5,1.1-5.2-1.2l-6.7-20.2
	C1305.4,76,1307.4,73.7,1309.8,74.2z"/>
<path class="st1" d="M1282.8-85.5l8.5,20.2c0.9,2.2-0.9,4.6-3.3,4.3l-21.1-3c-2.3-0.3-3.5-3-2.1-4.9l12.6-17.2
	C1278.8-88.1,1281.9-87.8,1282.8-85.5z"/>
<path class="st1" d="M1165.7,46.8l5.1,21.3c0.6,2.4-1.7,4.4-4,3.7l-20.3-6.4c-2.2-0.7-2.9-3.6-1.2-5.2l15.2-14.9
	C1162.2,43.6,1165.1,44.5,1165.7,46.8z"/>
<path class="st2" d="M1413.2-263.6l17.4,20.6c1.9,2.3,0.6,5.8-2.3,6.3l-25.9,4.2c-2.9,0.5-5.2-2.3-4.3-5l8.4-24.8
	C1407.6-265.1,1411.3-265.8,1413.2-263.6z"/>
<path class="st1" d="M1049.2-42l-20.5,7.6c-2.3,0.8-4.6-1.1-4.2-3.5l3.9-20.9c0.4-2.3,3.2-3.3,5-1.9l16.6,13.3
	C1051.9-45.8,1051.4-42.8,1049.2-42z"/>
<path class="st2" d="M989-228.3L971.7-249c-1.9-2.3-0.6-5.8,2.4-6.3l25.9-4c2.9-0.4,5.2,2.3,4.2,5.1l-8.6,24.8
	C994.6-226.6,990.9-226,989-228.3z"/>
<path class="st2" d="M925.2,125.8l-25.3-9.3c-2.8-1-3.4-4.7-1.1-6.6l20.4-16.5c2.3-1.8,5.6-0.6,6.2,2.3l4.9,25.8
	C930.8,124.4,928,126.9,925.2,125.8z"/>
<path class="st1" d="M1512.3,792.1l21.9,0.6c2.4,0.1,3.9,2.7,2.5,4.8l-11.5,18c-1.3,2-4.2,1.9-5.4-0.1l-10.4-18.6
	C1508.2,794.6,1509.8,792,1512.3,792.1z"/>
<path class="st1" d="M1490.2,1355.7l21,6.1c2.3,0.7,3.1,3.6,1.2,5.2l-15.6,14.5c-1.8,1.6-4.5,0.8-5.2-1.5l-5.4-20.6
	C1485.6,1357.1,1487.8,1355,1490.2,1355.7z"/>
<path class="st1" d="M1106.2,1481.6l20,8.9c2.2,1,2.6,4,0.5,5.4l-17.5,12.2c-2,1.4-4.6,0.2-4.9-2.2l-2.5-21.1
	C1101.5,1482.4,1104,1480.6,1106.2,1481.6z"/>
<path class="st1" d="M1601,670.8l4.1-21.5c0.5-2.4,3.3-3.4,5.1-1.7l15.9,14.2c1.8,1.6,1.2,4.4-1,5.3l-20,7.3
	C1602.8,675.2,1600.5,673.2,1601,670.8z"/>
</svg>
