<?xml version="1.0" encoding="utf-8"?>
<!-- Generator: Adobe Illustrator 22.0.1, SVG Export Plug-In . SVG Version: 6.00 Build 0)  -->
<svg version="1.1" id="Layer_1" xmlns="http://www.w3.org/2000/svg" xmlns:xlink="http://www.w3.org/1999/xlink" x="0px" y="0px"
	 viewBox="0 0 2560 1440" style="enable-background:new 0 0 2560 1440;" xml:space="preserve">
<style type="text/css">
	.st0{fill:#F2F2F2;}
	.st1{fill:none;stroke:url(#SVGID_1_);stroke-width:9;stroke-miterlimit:10;}
	.st2{fill:none;stroke:url(#SVGID_2_);stroke-width:9;stroke-miterlimit:10;}
	.st3{fill:none;stroke:url(#SVGID_3_);stroke-width:9;stroke-miterlimit:10;}
	.st4{fill:none;stroke:url(#SVGID_4_);stroke-width:9;stroke-miterlimit:10;}
	.st5{fill:none;stroke:url(#SVGID_5_);stroke-width:9;stroke-miterlimit:10;}
	.st6{fill:none;stroke:url(#SVGID_6_);stroke-width:9;stroke-miterlimit:10;}
</style>
<path class="st0" d="M1004.5,1101.1"/>
<path class="st0" d="M1247.8,1343.6"/>
<linearGradient id="SVGID_1_" gradientUnits="userSpaceOnUse" x1="1324.4113" y1="1408.087" x2="1546.2412" y2="1409.7472" gradientTransform="matrix(7.483771e-03 -1 -1 -7.483771e-03 2057.8188 1855.4026)">
	<stop  offset="0" style="stop-color:#662D91"/>
	<stop  offset="1" style="stop-color:#FF00FF"/>
</linearGradient>
<path class="st1" d="M747.5,430.8c-12.4,9.5-30.1,7.2-39.6-5l-69.1-89.4l-17.3-22.3c-9.5-12.4-27.3-14.6-39.6-5l-22.3,17.3
	l-134,103.5c-12.4,9.5-14.6,27.3-5,39.6l0,0c9.5,12.4,27.3,14.6,39.6,5l111.7-86.4c12.4-9.5,30.1-7.2,39.6,5l69.1,89.4l17.2,22.4
	c9.5,12.4,27.3,14.6,39.6,5l22.3-17.3l134-103.6c12.4-9.5,14.6-27.3,5-39.6l0,0c-9.5-12.4-27.3-14.6-39.6-5L747.5,430.8z"/>
<linearGradient id="SVGID_2_" gradientUnits="userSpaceOnUse" x1="465.8545" y1="3424.5393" x2="329.6325" y2="3838.4072" gradientTransform="matrix(0.7717 0.636 0.254 -0.3083 737.492 1222.382)">
	<stop  offset="0" style="stop-color:#109400"/>
	<stop  offset="1" style="stop-color:#03FF00"/>
</linearGradient>
<path class="st2" d="M1909.9,423.9L1909.9,423.9c-13.6-11.2-15.6-31.4-4.3-45l73.1-88.7c11.2-13.6,31.4-15.6,45-4.3l0,0
	c13.6,11.2,15.6,31.4,4.3,45l-73.1,88.7C1943.7,433.2,1923.5,435.2,1909.9,423.9z"/>
<linearGradient id="SVGID_3_" gradientUnits="userSpaceOnUse" x1="609.421" y1="3265.7983" x2="496.4083" y2="2960.7256" gradientTransform="matrix(-0.7333 0.6799 0.2716 0.2929 1409.3604 -799.7559)">
	<stop  offset="0" style="stop-color:#109400"/>
	<stop  offset="1" style="stop-color:#03FF00"/>
</linearGradient>
<path class="st3" d="M1804,438.1L1804,438.1c9.7-9,24.9-8.5,33.9,1.3l58.6,63.2c9,9.7,8.5,24.9-1.3,33.9l0,0
	c-9.7,9-24.9,8.5-33.9-1.3l-58.6-63.2C1793.7,462.3,1794.2,447.1,1804,438.1z"/>
<linearGradient id="SVGID_4_" gradientUnits="userSpaceOnUse" x1="546.5104" y1="3486.5918" x2="590.0235" y2="3309.7732" gradientTransform="matrix(-0.8513 -0.5246 -0.2095 0.3401 3160.9114 -295.0929)">
	<stop  offset="0" style="stop-color:#109400"/>
	<stop  offset="1" style="stop-color:#03FF00"/>
</linearGradient>
<path class="st4" d="M1983.8,531.9L1983.8,531.9c6,3.7,7.8,11.5,4.1,17.5l-24,38.9c-3.7,6-11.5,7.8-17.5,4.1l0,0
	c-6-3.7-7.8-11.5-4.1-17.5l24-38.9C1970,530.1,1977.9,528.2,1983.8,531.9z"/>
<linearGradient id="SVGID_5_" gradientUnits="userSpaceOnUse" x1="739.384" y1="955.2714" x2="739.384" y2="1196.8396">
	<stop  offset="0" style="stop-color:#0903F4"/>
	<stop  offset="1" style="stop-color:#090080"/>
</linearGradient>
<polygon class="st5" points="650.4,1002 624.7,1078.5 654.2,1153.5 725,1192.1 804,1176.1 854.3,1113.1 852.3,1032.4 798.9,972 
	719.2,960 "/>
<linearGradient id="SVGID_6_" gradientUnits="userSpaceOnUse" x1="1867.823" y1="900.2929" x2="1867.823" y2="1061.7498">
	<stop  offset="0" style="stop-color:#FF0000"/>
	<stop  offset="1" style="stop-color:#870000"/>
</linearGradient>
<path class="st6" d="M1909.1,907.2c12.3-7,27.6,2,27.4,16.2l-0.5,57.8l-0.5,57.8c-0.1,14.1-15.5,22.9-27.7,15.7l-49.8-29.3
	l-49.8-29.3c-12.2-7.2-12-24.9,0.3-31.8l50.3-28.5L1909.1,907.2z"/>
</svg>
