<?xml version="1.0" encoding="utf-8"?>
<!-- Generator: Adobe Illustrator 22.0.1, SVG Export Plug-In . SVG Version: 6.00 Build 0)  -->
<svg version="1.1" id="Layer_1" xmlns="http://www.w3.org/2000/svg" xmlns:xlink="http://www.w3.org/1999/xlink" x="0px" y="0px"
	 viewBox="0 0 2560 1440" style="enable-background:new 0 0 2560 1440;" xml:space="preserve">
<style type="text/css">
	.st0{fill:url(#SVGID_1_);}
	.st1{fill:url(#SVGID_2_);}
	.st2{fill:url(#SVGID_3_);}
	.st3{fill:url(#SVGID_4_);}
	.st4{fill:#F2F2F2;}
</style>
<linearGradient id="SVGID_1_" gradientUnits="userSpaceOnUse" x1="740.0226" y1="219.542" x2="575.3604" y2="675.5999" gradientTransform="matrix(0.9698 -0.2438 0.2438 0.9698 -77.2526 202.9094)">
	<stop  offset="0" style="stop-color:#FF0000"/>
	<stop  offset="1" style="stop-color:#A40000"/>
</linearGradient>
<path class="st0" d="M907.3,741.8c-11,2.8-23,0.8-32.8-6.3L359.6,363.7c-17.6-12.8-21.7-37.4-8.9-55.2l59.1-81.9
	c12.8-17.6,37.4-21.7,55.2-8.9l514.9,371.8c8.5,6.1,14.2,15.3,15.8,25.7c1.7,10.4-0.7,20.9-6.9,29.4l-59.1,81.9
	C924,734.4,916,739.6,907.3,741.8z M434.5,220.2c-6.7,1.7-12.9,5.6-17.3,11.7l-59.1,81.9c-9.9,13.6-6.7,32.7,6.9,42.6l514.9,371.8
	c6.6,4.7,14.7,6.6,22.7,5.3c8-1.3,15.1-5.6,19.9-12.2l59.1-81.9c4.7-6.6,6.6-14.7,5.3-22.7c-1.3-8-5.6-15.1-12.2-19.9L459.7,225
	C452.1,219.6,442.9,218.1,434.5,220.2z"/>
<linearGradient id="SVGID_2_" gradientUnits="userSpaceOnUse" x1="1937.3088" y1="1886.5896" x2="1937.3088" y2="1465.4467" gradientTransform="matrix(1 0 0 1 0 -560)">
	<stop  offset="0" style="stop-color:#006837"/>
	<stop  offset="1" style="stop-color:#00C43C"/>
</linearGradient>
<path class="st1" d="M1833.5,1326.6c-17.8,0-35.7-5.8-50.6-17.8c-34.9-27.9-40.5-79-12.6-113.9l207.6-259.1
	c27.9-34.9,79-40.5,113.9-12.6s40.5,79,12.6,113.9l-207.6,259.1C1880.8,1316.2,1857.2,1326.6,1833.5,1326.6z M1981.4,938.6l3.5,2.8
	l-207.6,259.1c-24.8,31-19.8,76.4,11.2,101.2c13.3,10.6,29.2,15.8,45,15.8c21.1,0,42.1-9.2,56.3-27l207.6-259.1
	c24.8-31,19.8-76.4-11.2-101.2s-76.4-19.8-101.2,11.2L1981.4,938.6z"/>
<linearGradient id="SVGID_3_" gradientUnits="userSpaceOnUse" x1="1864.0034" y1="794.9286" x2="1864.0034" y2="1103.9286" gradientTransform="matrix(1 0 0 1 0 -560)">
	<stop  offset="0" style="stop-color:#FCEE21"/>
	<stop  offset="1" style="stop-color:#F7931E"/>
</linearGradient>
<path class="st2" d="M1864,543.9c-85.2,0-154.5-69.3-154.5-154.5s69.3-154.5,154.5-154.5c85.2,0,154.5,69.3,154.5,154.5
	S1949.2,543.9,1864,543.9z M1864,243.9c-80.2,0-145.5,65.3-145.5,145.5s65.3,145.5,145.5,145.5s145.5-65.3,145.5-145.5
	S1944.3,243.9,1864,243.9z"/>
<linearGradient id="SVGID_4_" gradientUnits="userSpaceOnUse" x1="755.3932" y1="1789.8154" x2="755.3932" y2="1627.8154" gradientTransform="matrix(1 0 0 1 0 -560)">
	<stop  offset="0" style="stop-color:#3000FF"/>
	<stop  offset="1" style="stop-color:#29ABE2"/>
</linearGradient>
<path class="st3" d="M755.4,1229.8c-44.7,0-81-36.3-81-81s36.3-81,81-81s81,36.3,81,81S800.1,1229.8,755.4,1229.8z M755.4,1076.8
	c-39.7,0-72,32.3-72,72s32.3,72,72,72s72-32.3,72-72S795.1,1076.8,755.4,1076.8z"/>
<path class="st4" d="M1004.5,1101.1"/>
<path class="st4" d="M1247.8,1343.6"/>
</svg>
