<?xml version="1.0" encoding="utf-8"?>
<!-- Generator: Adobe Illustrator 22.0.1, SVG Export Plug-In . SVG Version: 6.00 Build 0)  -->
<svg version="1.1" id="Layer_1" xmlns="http://www.w3.org/2000/svg" xmlns:xlink="http://www.w3.org/1999/xlink" x="0px" y="0px"
	 viewBox="0 0 2000 834.1" style="enable-background:new 0 0 2000 834.1;" xml:space="preserve">
<style type="text/css">
	.st0{fill:#0A0D0B;}
	.st1{fill:#FFFFFF;stroke:#000000;stroke-width:8.7186;stroke-miterlimit:10;}
	.st2{fill:#0000FF;}
	.st3{fill:#FFFFFF;stroke:#000000;stroke-width:8.7187;stroke-miterlimit:10;}
	.st4{fill:#FFFF00;}
	.st5{opacity:0.25;}
	.st6{opacity:0.15;}
	.st7{fill:none;stroke:#000000;stroke-width:8.7186;stroke-linejoin:bevel;stroke-miterlimit:10;}
	.st8{opacity:0.25;fill:#FFFFFF;enable-background:new    ;}
	.st9{opacity:0.75;fill:#FFFF00;enable-background:new    ;}
	.st10{fill:#C1272D;}
	.st11{fill:#F15A24;}
	.st12{fill:#FF0000;}
	.st13{fill:#F2F2F2;}
	.st14{opacity:0.43;fill:#FFFFFF;enable-background:new    ;}
	.st15{fill:#CCCCCC;}
	.st16{fill:#B3B3B3;}
	.st17{opacity:0.3;fill:#FFFFFF;enable-background:new    ;}
	.st18{fill:none;stroke:#000000;stroke-width:8.6975;stroke-linecap:round;stroke-linejoin:round;stroke-miterlimit:10;}
	.st19{fill:#666666;stroke:#000000;stroke-width:5.9143;stroke-linecap:round;stroke-linejoin:round;stroke-miterlimit:10;}
	.st20{fill:none;}
	.st21{fill:#FFFFFF;}
	.st22{font-family:'Axiforma-HeavyItalic';}
	.st23{font-size:211.7039px;}
	.st24{fill:none;stroke:#FFFFFF;stroke-width:4.2341;stroke-miterlimit:10;}
</style>
<g>
	<g>
		<g>
			<path class="st0" d="M1090.2,617.1l-6.7,3.8l-79.5,45.9c0,0,0,0-0.1,0c-1.2,0.7-2.6,1.1-4,1.2h-0.4c-1.4,0-2.8-0.4-4-1.2
				c0,0,0,0-0.1,0l-121-69.8l-6.7-3.9l11.9-11.9L984,641.5c0.8,0.4,1.6,0.7,2.5,0.7c0.8,0,1.7-0.2,2.5-0.7c1.5-0.9,2.5-2.5,2.5-4.3
				V485.1l16.3,16.3v135.8c0,1.8,0.9,3.4,2.5,4.3c0.8,0.4,1.6,0.7,2.5,0.7c0.8,0,1.7-0.2,2.5-0.7l62.9-36.3L1090.2,617.1z"/>
			<path class="st0" d="M798,318.8v212.6c0,1.8,0.9,3.4,2.5,4.3l13.5,7.8l-6.7,6.7l-5.3,5.3l-16.3-9.4c-2.5-1.4-4.1-4.2-4.1-7.1
				V296.2c0-0.2,0-0.4,0-0.8v-0.1v-0.1c0-0.2,0.1-0.4,0.1-0.6c0-0.1,0-0.1,0.1-0.2c0-0.2,0.1-0.3,0.1-0.5c0-0.1,0-0.2,0.1-0.2
				c0.1-0.2,0.1-0.4,0.2-0.6c0-0.1,0.1-0.1,0.1-0.2s0.1-0.2,0.2-0.3c0,0,0-0.1,0.1-0.1v-0.1l0.1-0.1c0.1-0.1,0.1-0.3,0.2-0.4
				c0-0.1,0.1-0.1,0.1-0.2c0.1-0.1,0.2-0.2,0.3-0.4c0.1-0.1,0.2-0.2,0.3-0.3c0.1-0.1,0.2-0.3,0.3-0.4l0.1-0.1
				c0.1-0.1,0.3-0.2,0.4-0.4l0.1-0.1l0.1-0.1l0,0c0.1-0.1,0.3-0.2,0.4-0.3c0,0,0.1,0,0.1-0.1c0,0,0.1,0,0.1-0.1
				c0.1-0.1,0.3-0.2,0.4-0.2l6.1-3.5l50.2,50.2L817,321.5l-11.9-6.9c-0.8-0.4-1.6-0.7-2.5-0.7c-0.8,0-1.7,0.2-2.5,0.7
				C799,315.4,798,317.1,798,318.8z"/>
			<path class="st0" d="M1121.5,235.1l-11.9,11.9l-107.3-62c-0.8-0.4-1.6-0.7-2.5-0.7c-0.8,0-1.7,0.2-2.5,0.7L899,241.9l-5.3-5.3
				l-6.7-6.7l108.7-62.7c1.2-0.7,2.7-1.1,4.1-1.1c1.4,0,2.8,0.4,4.1,1.1L1121.5,235.1z"/>
			<path class="st0" d="M1218.3,295.6v242.8c0,2.9-1.6,5.6-4.1,7.1l-7.3,4.2l-11.9-11.9l4.6-2.6c1.5-0.9,2.5-2.5,2.5-4.3V318.3
				c0-1.8-0.9-3.4-2.5-4.3c-0.8-0.4-1.6-0.7-2.5-0.7c-0.8,0-1.7,0.2-2.5,0.7l-87.6,50.6l-24.9,14.4l44.6-44.6l58-33.5l1.7-1
				c1.5-0.9,2.5-2.5,2.5-4.3s-0.9-3.4-2.5-4.3l-3.9-2.3l-6.7-3.8l11.9-11.9l26.4,15.3C1216.7,290,1218.3,292.7,1218.3,295.6z"/>
		</g>
	</g>
	<g>
		<g>
			<path class="st1" d="M853.1,493.4"/>
			<g>
				<g>
					<path class="st2" d="M717.5,723.8c-1.1,0-2.2-0.4-3.1-1.3l-27.1-27.1c-1.7-1.7-1.7-4.5,0-6.2l189.9-189.9
						c0.9-0.9,2-1.3,3.1-1.3s2.2,0.4,3.1,1.3l27.1,27.1c0.8,0.8,1.3,1.9,1.3,3.1s-0.5,2.3-1.3,3.1L720.6,722.5
						C719.7,723.4,718.6,723.8,717.5,723.8z"/>
					<path d="M880.2,502.4l27.1,27.1L717.5,719.4l-27.1-27.1L880.2,502.4 M880.2,493.7c-2.2,0-4.5,0.9-6.2,2.6L684.2,686.2
						c-3.4,3.4-3.4,8.9,0,12.3l27.1,27.1c1.6,1.6,3.9,2.6,6.2,2.6s4.5-0.9,6.2-2.6l189.9-189.9c3.4-3.4,3.4-8.9,0-12.3l-27.1-27.1
						C884.7,494.6,882.5,493.7,880.2,493.7L880.2,493.7z"/>
				</g>
				<path class="st3" d="M1296.2,86.5L907.4,475.3l27.1,27.1l343.6-343.6c2-8,4-16.1,6-24.1s4-16.1,6-24.1
					C1292.1,102.6,1294.2,94.5,1296.2,86.5z"/>
				<g>
					<path class="st4" d="M925.4,552c-1.1,0-2.2-0.4-3.1-1.3L859,487.4c-0.8-0.8-1.3-1.9-1.3-3.1s0.5-2.3,1.3-3.1l9-9
						c0.9-0.9,2-1.3,3.1-1.3s2.2,0.4,3.1,1.3l15,15l15-15c0.9-0.9,2-1.3,3.1-1.3s2.2,0.4,3.1,1.3l27.1,27.1c1.7,1.7,1.7,4.5,0,6.2
						l-15,15l15,15c0.8,0.8,1.3,1.9,1.3,3.1s-0.5,2.3-1.3,3.1l-9,9C927.7,551.6,926.6,552,925.4,552z"/>
					<path d="M907.4,475.3l27.1,27.1l-18.1,18.1l18.1,18.1l-9,9l-63.3-63.3l9-9l18.1,18.1L907.4,475.3 M907.4,466.6
						c-2.3,0-4.5,0.9-6.2,2.6l-11.9,11.9l-11.9-11.9c-1.6-1.6-3.9-2.6-6.2-2.6l0,0c-2.3,0-4.5,0.9-6.2,2.6l-9,9
						c-3.4,3.4-3.4,8.9,0,12.3l63.3,63.3c1.7,1.7,3.9,2.6,6.2,2.6s4.5-0.9,6.2-2.6l9-9c1.6-1.6,2.6-3.9,2.6-6.2s-0.9-4.5-2.6-6.2
						l-11.9-11.9l11.9-11.9c3.4-3.4,3.4-8.9,0-12.3l-27.1-27.1C911.9,467.5,909.7,466.6,907.4,466.6L907.4,466.6z"/>
				</g>
				<g>
					<path class="st4" d="M699.4,741.9c-1.2,0-2.3-0.5-3.1-1.3l-27.1-27.1c-1.7-1.7-1.7-4.5,0-6.2l18.1-18.1c0.9-0.9,2-1.3,3.1-1.3
						s2.2,0.4,3.1,1.3l27.1,27.1c1.7,1.7,1.7,4.5,0,6.2l-18.1,18.1C701.7,741.4,700.5,741.9,699.4,741.9z"/>
					<path d="M690.3,692.3l27.1,27.1l-18.1,18.1l-27.1-27.1L690.3,692.3 M690.3,683.6c-2.3,0-4.5,0.9-6.2,2.6L666,704.3
						c-3.4,3.4-3.4,8.9,0,12.3l27.1,27.1c1.7,1.7,3.9,2.6,6.2,2.6s4.5-0.9,6.2-2.6l18.1-18.1c3.4-3.4,3.4-8.9,0-12.3l-27.1-27.1
						C694.9,684.5,692.7,683.6,690.3,683.6L690.3,683.6z"/>
				</g>
			</g>
			<g class="st5">
				<path d="M1296.2,86.5c-135.6,135.6-271.3,271.3-406.9,406.9c-6-6-12.1-12.1-18.1-18.1c-3,3-6,6-9,9c6,6,12.1,12.1,18.1,18.1
					c-69.3,69.3-138.6,138.6-208,208c3,3,6,6,9,9l608.8-608.8C1292.1,102.6,1294.2,94.5,1296.2,86.5z"/>
			</g>
			<g class="st6">
				<path d="M1290.1,110.6L681.3,719.4l9,9l593.8-593.8C1286.1,126.7,1288.1,118.7,1290.1,110.6z"/>
			</g>
			<polygon class="st7" points="898.3,538.6 844.1,538.6 844.1,592.9 789.8,592.9 789.8,647.1 735.6,647.1 735.6,701.4 708.4,701.4 
				708.4,674.2 762.7,674.2 762.7,620 816.9,620 816.9,565.7 871.2,565.7 871.2,511.5 			"/>
			<polygon class="st8" points="925.4,493.4 690.3,728.5 699.4,737.5 907.4,529.6 925.4,547.6 934.5,538.6 916.4,520.5 934.5,502.4 
							"/>
			
				<rect x="891.9" y="466.7" transform="matrix(0.7071 -0.7071 0.7071 0.7071 -98.5418 784.9976)" class="st9" width="12.8" height="89.5"/>
		</g>
		<g>
			
				<rect x="1031.8" y="68.2" transform="matrix(0.7071 -0.7071 0.7071 0.7071 2.3641 863.6396)" class="st10" width="23.7" height="721.5"/>
			<polygon class="st11" points="1273.8,709.2 1273.8,709.2 1258.7,724.2 1257,726 1225.9,694.8 1221.7,690.6 1055.6,524.5 
				984,452.9 975,443.9 965.9,434.8 956.9,425.8 746.8,215.7 749.4,213.1 750.3,212.3 763.5,199 767.7,203.2 767.7,203.2 
				767.7,203.2 767.9,203.4 973.6,409.1 973.6,409.1 982.6,418.1 991.7,427.1 1000.7,436.2 1000.7,436.2 			"/>
			
				<rect x="1015.2" y="85" transform="matrix(0.7071 -0.7071 0.7071 0.7071 -14.365 856.7695)" class="st12" width="23.7" height="721.5"/>
			<polygon class="st13" points="753.6,217.3 776.1,194.8 685,103.8 680.8,108 			"/>
			
				<rect x="1022.4" y="96.5" transform="matrix(0.7071 -0.7071 0.7071 0.7071 -23.4672 857.8423)" class="st14" width="2.8" height="721.5"/>
			<polygon class="st15" points="798.6,172.4 776.1,194.8 685,103.8 689.3,99.5 			"/>
			<path class="st16" d="M1286.3,698.6l9.7-9.7c1.9-1.9,5.1-1.9,7.1,0l23.2,23.2c1.9,1.9,1.9,5.1,0,7.1l-9.7,9.7
				c-1.9,1.9-5.1,1.9-7.1,0l-23.2-23.2C1284.4,703.7,1284.4,700.5,1286.3,698.6z"/>
			<path class="st13" d="M1310.4,735l-11.4,11.4c-1.5,1.5-3.8,1.5-5.3,0l-25-25c-1.5-1.5-1.5-3.8,0-5.3l11.4-11.4
				c1.5-1.5,3.8-1.5,5.3,0l25,25C1311.9,731.2,1311.9,733.6,1310.4,735z"/>
			
				<rect x="1037" y="81.7" transform="matrix(0.7071 -0.7071 0.7071 0.7071 -8.7381 863.8965)" class="st17" width="2.8" height="721.5"/>
			<g>
				<polygon class="st18" points="1306.4,679.7 1260.3,725.8 1232.6,698.1 752.9,218.4 799.1,172.3 				"/>
				<polygon class="st19" points="1232.6,698.1 1230.9,699.8 1214.2,716.6 1038.9,541.3 1048.1,532.1 1048.7,532.6 1214.2,698.1 
					1223.4,688.9 1227.6,693.1 				"/>
				
					<rect x="1277.6" y="697.1" transform="matrix(0.7071 -0.7071 0.7071 0.7071 -126.788 1127.1071)" class="st18" width="39.1" height="39.1"/>
				<polygon class="st18" points="799.1,172.3 752.9,218.4 679.1,107.7 688.4,98.5 798.8,172.1 				"/>
				<line class="st18" x1="684" y1="102.8" x2="675.7" y2="94.4"/>
			</g>
		</g>
	</g>
</g>
<rect x="349.6" y="335.8" class="st20" width="1300.7" height="162.6"/>
<text transform="matrix(1 0 0 1 349.6455 497.4913)" class="st21 st22 st23">MY STYLE?</text>
<text transform="matrix(1 0 0 1 349.6455 497.4913)" class="st24 st22 st23">MY STYLE?</text>
</svg>
