<?xml version="1.0" encoding="utf-8"?>
<!-- Generator: Adobe Illustrator 22.0.1, SVG Export Plug-In . SVG Version: 6.00 Build 0)  -->
<svg version="1.1" id="Layer_1" xmlns="http://www.w3.org/2000/svg" xmlns:xlink="http://www.w3.org/1999/xlink" x="0px" y="0px"
	 viewBox="0 0 768 256" style="enable-background:new 0 0 768 256;" xml:space="preserve">
<style type="text/css">
	.st0{fill:#1DA1F2;}
	.st1{fill:#FFFFFF;}
</style>
<g>
	<path class="st0" d="M698,256H70c-38.5,0-70-31.5-70-70V70C0,31.5,31.5,0,70,0h628c38.5,0,70,31.5,70,70v116
		C768,224.5,736.5,256,698,256z"/>
	<g>
		<g>
			<path class="st1" d="M474.3,65.5c-6.6,3.3-13.8,5.5-21.3,6.5c7.7-5.1,13.5-13.2,16.3-22.9c-7.2,4.7-15.1,8.2-23.6,10
				c-6.8-8-16.4-13.1-27.1-13.1c-20.5,0-37.1,18.5-37.1,41.3c0,3.2,0.3,6.4,1,9.4c-30.8-1.7-58.1-18.2-76.4-43.2
				c-3.2,6.1-5,13.2-5,20.8c0,14.3,6.5,27,16.5,34.4c-6.1-0.2-11.8-2.1-16.8-5.2v0.5c0,20,12.8,36.7,29.7,40.5
				c-3.1,0.9-6.4,1.4-9.8,1.4c-2.4,0-4.7-0.3-7-0.8c4.7,16.4,18.4,28.4,34.6,28.7c-12.7,11.1-28.7,17.7-46,17.7
				c-3,0-5.9-0.2-8.8-0.6c16.4,11.8,35.9,18.6,56.8,18.6c68.2,0,105.4-63,105.4-117.6l-0.1-5.4C463.1,81.1,469.4,73.8,474.3,65.5z"
				/>
		</g>
	</g>
</g>
</svg>
